<svg width="512" height="512" viewBox="0 0 512 512" fill="white" xmlns="http://www.w3.org/2000/svg">
<g id="logo">
<path id="bomb" d="M60.9997 155.208C21.186 196.329 1.1376 245.006 0.854362 301.239L0.853195 301.514C0.852503 301.622 0.851812 301.731 0.852092 301.839L0.851318 302.449C0.851318 342.209 11.4115 379.155 32.5319 413.287C33.3015 414.534 34.085 415.777 34.8826 417.015L35.2864 417.631L35.674 418.225C58.3616 453.725 88.5676 479.542 126.292 495.678C151.618 506.705 177.735 512.218 204.643 512.218C205.171 512.218 205.699 512.216 206.227 512.211C206.755 512.216 207.282 512.218 207.809 512.218C209.278 512.218 210.73 512.166 212.167 512.065C223.202 511.617 234.412 510.189 245.798 507.78C286.952 499.712 322.302 480.618 351.849 450.497C390.976 410.61 411.601 357.522 411.601 301.239V177.011C395.884 175.132 380.43 168.59 364.431 170.433C347.019 172.438 338.18 177.409 329.132 183.2C320.556 188.689 313.868 195.72 303.421 206.988L311.681 214.747C319.675 221.743 320.6 235.145 313.024 242.999L305.193 251.577C325.677 291.705 320.828 342.198 288.998 377.957C275.753 392.85 259.496 403.259 242.044 409.136C230.673 413.313 218.998 415.402 207.018 415.402C199.631 415.402 191.981 414.595 184.066 412.981C158.741 407.602 137.504 394.425 120.357 373.448C104 352.471 95.8224 328.805 95.8224 302.449C95.8224 275.676 104.171 252.082 120.87 231.666C122.205 229.995 123.595 228.353 125.04 226.744C129.801 221.395 134.951 216.627 140.407 212.442C159.347 197.588 181.419 189.94 206.622 189.497C221.47 189.73 235.181 192.509 247.755 197.833L255.485 189.365C262.349 181.252 275.528 180.339 283.268 188.059L290.272 194.638C300.529 183.574 308.758 174.721 319.627 167.765C330.07 161.082 341.481 154.736 362.424 152.324C379.71 150.333 394.991 156.625 411.601 158.777V48.6262C411.601 35.4484 406.985 24.1532 397.751 14.7405C388.518 5.05885 377.306 0.218031 364.116 0.218031C351.189 0.218031 340.109 5.05885 330.876 14.7405C321.379 24.1532 316.63 35.4484 316.63 48.6262V125.425C285.07 104.359 248.796 93.4438 207.809 92.6806H205.039C149.112 93.4874 101.099 114.33 60.9997 155.208Z" fill="#E535AB"/>
<path id="spark" d="M441.308 242.226L423.894 209.219V136.484V112.468L473.027 58.6147C473.782 58.2662 474.599 58.2604 475.357 58.598C476.115 58.9355 476.776 59.5989 477.242 60.4914C477.708 61.3839 477.956 62.4587 477.949 63.5593C477.942 64.66 477.681 65.7287 477.203 66.6098L473.027 89.408H496.027C496.843 89.2195 497.682 89.4107 498.411 89.9517C499.14 90.4926 499.719 91.3527 500.057 92.3971C500.394 93.4414 500.471 94.6109 500.276 95.7223C500.08 96.8336 499.623 97.8239 498.976 98.5378L465.243 135.824L507.267 133.458C510.881 133.458 512.55 135.373 512.745 136.484C512.941 137.595 512.864 138.764 512.526 139.809C512.189 140.853 511.61 141.713 510.881 142.254C510.152 142.795 508.084 144.709 507.267 144.521L459.679 173.872L464.633 193.48C465.113 194.474 465.328 195.666 465.243 196.855C465.158 198.043 464.777 199.154 464.166 199.998C463.555 200.842 462.751 201.368 461.891 201.486C461.031 201.604 460.168 201.306 459.449 200.644L442.257 198.689L447.967 238.115C448.135 239.264 448.014 240.458 447.625 241.5C447.236 242.542 446.602 243.37 445.827 243.848C445.052 244.327 444.183 244.426 443.362 244.132C442.541 243.837 441.816 243.165 441.308 242.226Z" fill="#E535AB"/>
</g>
</svg>
