<svg width="560" height="90" viewBox="0 0 560 90" fill="none" xmlns="http://www.w3.org/2000/svg">
<path d="M511.854 67.8776C512.61 68.5866 513.414 69.2011 514.265 69.7211C517.29 71.801 520.717 72.9354 524.546 73.1245H525.184C528.729 73.1245 532.038 72.2737 535.111 70.5719C537.285 69.2957 539.625 67.0267 542.13 63.7651C543.407 61.7797 545.179 60.5035 547.448 59.9362C548.11 59.7471 548.772 59.6526 549.434 59.6526C551.041 59.6526 552.53 60.078 553.901 60.9289C555.886 62.1579 557.139 63.9069 557.659 66.1758C557.8 66.9322 557.871 67.6412 557.871 68.303C557.871 69.8629 557.446 71.3283 556.595 72.6991C552.01 78.7496 547.637 82.9567 543.478 85.3202C537.947 88.44 532.038 89.9999 525.751 89.9999C523.955 89.9999 522.159 89.9053 520.363 89.7163C512.09 88.5818 505.047 85.1074 499.233 79.2932C496.019 76.0789 493.466 72.3682 491.575 68.1612C491.434 67.8303 491.292 67.4994 491.15 67.1685C491.008 66.7904 490.866 66.4122 490.724 66.034C489.212 61.7325 488.456 57.4545 488.456 53.2003C488.456 48.3787 489.425 43.6281 491.363 38.9484C494.199 32.1415 498.737 26.7291 504.976 22.7112C510.98 18.8823 517.763 16.7788 525.326 16.4006H526.602C533.267 16.4006 539.578 18.4569 545.534 22.5694C551.49 26.6818 556.028 32.0942 559.148 38.8066C559.195 38.9956 559.289 39.1847 559.431 39.3738C559.431 39.4683 559.455 39.5393 559.502 39.5865V39.7283L559.573 39.7992V40.012C559.62 40.0592 559.644 40.1065 559.644 40.1538V40.2247C559.739 40.3192 559.786 40.3901 559.786 40.4374V40.5792C559.833 40.6265 559.857 40.721 559.857 40.8628V41.0046H559.928V41.43C559.975 41.6191 559.999 41.7609 559.999 41.8555V43.5572C559.951 43.6045 559.928 43.6754 559.928 43.7699V44.1953C559.88 44.3371 559.833 44.5026 559.786 44.6917V44.7626C559.786 44.8098 559.739 44.8571 559.644 44.9044V45.1171C559.597 45.1644 559.573 45.2353 559.573 45.3298L559.502 45.5425C559.502 45.5898 559.479 45.6371 559.431 45.6843C559.431 45.7316 559.408 45.8025 559.36 45.8971L559.219 46.0389V46.1098L559.148 46.3225L559.006 46.6061L558.935 46.8188C558.935 46.8661 558.888 46.9134 558.793 46.9606C558.793 47.0079 558.769 47.0788 558.722 47.1733C558.675 47.2206 558.628 47.2679 558.58 47.3152L558.509 47.457L558.297 47.6697L558.226 47.8115L558.084 48.0242C558.084 48.0715 558.037 48.1187 557.942 48.166C557.848 48.2605 557.777 48.3551 557.73 48.4496L557.517 48.5914C557.47 48.6387 557.422 48.686 557.375 48.7332L557.304 48.8751L557.233 48.946L557.091 49.0169C557.044 49.0641 556.997 49.1114 556.95 49.1587L556.808 49.3005C556.713 49.3478 556.642 49.395 556.595 49.4423C556.501 49.4896 556.382 49.5841 556.241 49.7259L556.099 49.7968C556.051 49.8441 556.004 49.8677 555.957 49.8677C555.862 49.915 555.768 49.9386 555.673 49.9386V50.0095L555.531 50.1513C555.437 50.1513 555.366 50.175 555.319 50.2222C555.272 50.2695 555.224 50.2932 555.177 50.2932C555.13 50.3404 555.035 50.3641 554.893 50.3641C554.846 50.4113 554.799 50.435 554.752 50.435L511.854 67.8776ZM538.656 38.6648C535.584 35.8286 532.086 34.1505 528.162 33.6305C527.122 33.4887 526.082 33.4178 525.042 33.4178C518.188 33.4178 512.8 36.3485 508.876 42.21C506.843 45.1407 505.733 48.426 505.544 52.0658L538.656 38.6648Z" fill="#F50057"/>
<path d="M479.947 89.9997C472.384 89.9997 465.34 87.8016 458.817 83.4055C451.774 78.7731 447.591 72.8879 446.267 65.7501L445.204 47.6694L445.274 39.5505H443.856C441.54 39.5505 439.555 38.7469 437.9 37.1397C436.199 35.4852 435.348 33.4526 435.348 31.0419C435.348 28.7257 436.199 26.7403 437.9 25.0859C439.555 23.3841 441.54 22.5333 443.856 22.5333H445.274V8.50852C445.274 6.1923 446.102 4.18332 447.756 2.48161C449.411 0.827161 451.419 -6.23269e-05 453.783 -6.23269e-05C456.146 -6.23269e-05 458.132 0.850796 459.739 2.55251C461.441 4.20696 462.292 6.1923 462.292 8.50852L462.221 22.5333C462.221 22.5333 471.604 22.5333 473.92 22.5333C476.236 22.5333 478.222 23.3841 479.876 25.0859C481.578 26.7403 482.429 28.7257 482.429 31.0419C482.429 33.4526 481.578 35.4852 479.876 37.1397C478.222 38.7469 476.236 39.5505 473.92 39.5505H462.221L462.221 47.6694C462.221 48.1893 462.197 49.8911 462.15 52.7745C462.102 53.8617 462.079 54.8308 462.079 55.6816C462.079 56.5798 462.102 57.3833 462.15 58.0924C462.481 62.2049 463.781 65.2774 466.05 67.31C470.067 71.0916 474.7 72.9825 479.947 72.9825C482.31 72.9825 484.319 73.7861 485.974 75.3933C487.628 77.095 488.455 79.1276 488.455 81.4911C488.455 83.8546 487.628 85.8636 485.974 87.518C484.319 89.1724 482.31 89.9997 479.947 89.9997Z" fill="#F50057"/>
<path d="M397.548 33.2757C392.159 33.3703 387.503 35.332 383.58 39.1608C379.656 43.0842 377.695 47.7403 377.695 53.1291C377.695 57.7615 379.207 61.9212 382.233 65.6083C385.211 69.2954 388.969 71.6116 393.506 72.557C394.925 72.8406 396.295 72.9824 397.619 72.9824C401.4 72.9824 404.993 71.8716 408.396 69.6499C413.076 66.6246 415.912 62.4412 416.905 57.0997C417.189 55.6344 417.33 54.2163 417.33 52.8454C417.33 48.4493 415.841 44.4078 412.863 40.7207C408.798 35.8519 403.693 33.3703 397.548 33.2757ZM397.761 16.2585C407.735 16.4004 416.338 20.0638 423.57 27.2488C430.755 34.5284 434.348 43.1551 434.348 53.1291V81.491C434.348 83.8545 433.52 85.8635 431.866 87.5179C430.164 89.1723 428.155 89.9996 425.839 89.9996C421.632 89.9996 418.914 87.967 417.685 83.9017C413.762 86.5489 409.507 88.3215 404.922 89.2196C402.37 89.7396 399.841 89.9996 397.335 89.9996C390.387 89.9996 383.722 87.9197 377.34 83.7599C368.737 78.1348 363.443 70.3826 361.457 60.5032C360.937 58.0451 360.677 55.5871 360.677 53.1291C360.677 47.2676 362.096 41.6188 364.932 36.1828C368.95 28.3833 374.929 22.7818 382.871 19.3784C387.55 17.393 392.443 16.3531 397.548 16.2585H397.761Z" fill="#F50057"/>
<path d="M284.611 24.7671C284.611 22.4509 285.462 20.4656 287.164 18.8111C288.818 17.1094 290.803 16.2585 293.12 16.2585C297.374 16.2585 300.092 18.2912 301.274 22.3564C307.371 18.433 314.107 16.4476 321.481 16.4004C328.903 16.4004 335.662 18.4093 341.76 22.4273C349.607 27.5797 354.807 35.0956 357.359 44.975C357.974 47.2912 358.281 50.0093 358.281 53.1291V81.491C358.281 83.8545 357.454 85.8635 355.799 87.5179C354.192 89.1723 352.183 89.9996 349.773 89.9996C347.456 89.9996 345.471 89.1723 343.817 87.5179C342.115 85.8635 341.264 83.8545 341.264 81.491V53.1291C341.264 49.1584 340.153 45.495 337.931 42.1388C335.662 38.7354 332.732 36.301 329.139 34.8356C326.634 33.7957 324.129 33.2757 321.623 33.2757C319.26 33.2757 316.873 33.7484 314.462 34.6938C309.546 36.5373 305.953 39.799 303.684 44.4787C302.408 47.0313 301.723 49.9147 301.628 53.1291V81.491C301.628 83.8545 300.801 85.8635 299.146 87.5179C297.492 89.1723 295.483 89.9996 293.12 89.9996C290.803 89.9996 288.818 89.1723 287.164 87.5179C285.462 85.8635 284.611 83.8545 284.611 81.491V24.7671Z" fill="#F50057"/>
<path d="M245.691 16.2585C256.043 16.4476 264.718 20.182 271.713 27.4615C278.662 34.4575 282.136 43.0133 282.136 53.1291V53.4127C282.089 63.5284 278.544 72.1079 271.501 79.1511C266.207 84.4454 259.872 87.8015 252.498 89.2196C249.993 89.7396 247.535 89.9996 245.124 89.9996C240.303 89.9996 235.623 89.0305 231.085 87.0925C224.325 84.2563 218.913 79.7184 214.848 73.4787C210.688 67.2391 208.608 60.4559 208.608 53.1291C208.608 43.1551 212.201 34.5284 219.386 27.2488C226.571 20.0638 235.174 16.4004 245.195 16.2585H245.691ZM245.479 33.2757C239.995 33.3703 235.339 35.332 231.51 39.1608C227.587 43.0842 225.625 47.7403 225.625 53.1291C225.625 57.7615 227.091 61.9212 230.021 65.6083C233.094 69.2954 236.899 71.6116 241.437 72.557C242.855 72.8406 244.226 72.9824 245.55 72.9824C249.284 72.9824 252.853 71.8716 256.256 69.6499C260.889 66.6246 263.748 62.4412 264.836 57.0997C265.119 55.6816 265.261 54.3108 265.261 52.9873C265.261 48.5439 263.725 44.455 260.652 40.7207C256.682 35.8519 251.624 33.3703 245.479 33.2757Z" fill="#F50057"/>
<path d="M200.1 89.9995C192.536 89.9995 185.493 87.8015 178.97 83.4054C171.927 78.7729 167.743 72.8879 166.42 65.7501L165.356 47.6694L165.427 39.5547H164.009C161.693 39.5547 159.708 38.7511 158.053 37.1439C156.351 35.4895 155.501 33.4569 155.501 31.0461C155.501 28.7299 156.351 26.7445 158.053 25.0901C159.708 23.3884 161.693 22.5375 164.009 22.5375H165.427V8.51273C165.427 6.19651 166.254 4.18754 167.909 2.48582C169.563 0.831374 171.572 0.00415039 173.936 0.00415039C176.299 0.00415039 178.285 0.855009 179.892 2.55673C181.594 4.21117 182.444 6.19651 182.444 8.51273L182.373 22.5375C182.373 22.5375 191.757 22.5375 194.073 22.5375C196.389 22.5375 198.374 23.3884 200.029 25.0901C201.731 26.7445 202.581 28.7299 202.581 31.0461C202.581 33.4569 201.731 35.4895 200.029 37.1439C198.374 38.7511 196.389 39.5547 194.073 39.5547H182.373L182.373 47.6694C182.373 48.1894 182.35 49.8911 182.302 52.7745C182.255 53.8617 182.232 54.8308 182.232 55.6816C182.232 56.5798 182.255 57.3833 182.302 58.0924C182.633 62.2049 183.933 65.2774 186.202 67.31C190.22 71.0916 194.853 72.9824 200.1 72.9824C202.463 72.9824 204.472 73.7859 206.126 75.3931C207.781 77.0948 208.608 79.1274 208.608 81.4909C208.608 83.8544 207.781 85.8634 206.126 87.5179C204.472 89.1723 202.463 89.9995 200.1 89.9995Z" fill="#F50057"/>
<path d="M106.392 67.8776C107.149 68.5866 107.952 69.2011 108.803 69.7211C111.828 71.801 115.255 72.9355 119.084 73.1245H119.722C123.268 73.1245 126.577 72.2737 129.649 70.572C131.824 69.2957 134.163 67.0267 136.669 63.7651C137.945 61.7798 139.718 60.5035 141.987 59.9362C142.648 59.7472 143.31 59.6526 143.972 59.6526C145.579 59.6526 147.068 60.078 148.439 60.9289C150.424 62.1579 151.677 63.9069 152.197 66.1759C152.339 66.9322 152.41 67.6412 152.41 68.303C152.41 69.8629 151.984 71.3283 151.133 72.6991C146.548 78.7497 142.176 82.9567 138.016 85.3202C132.485 88.44 126.577 89.9999 120.29 89.9999C118.493 89.9999 116.697 89.9054 114.901 89.7163C106.629 88.5818 99.5854 85.1075 93.7712 79.2933C90.5569 76.0789 88.0043 72.3682 86.1135 68.1612C85.9717 67.8303 85.8299 67.4994 85.6881 67.1685C85.5463 66.7904 85.4045 66.4122 85.2627 66.0341C83.75 61.7325 82.9937 57.4546 82.9937 53.2003C82.9937 48.3787 83.9627 43.6281 85.9008 38.9484C88.737 32.1415 93.2749 26.7291 99.5145 22.7112C105.518 18.8823 112.301 16.7788 119.864 16.4007H121.141C127.806 16.4007 134.116 18.4569 140.072 22.5694C146.028 26.6819 150.566 32.0943 153.686 38.8066C153.733 38.9957 153.828 39.1848 153.969 39.3738C153.969 39.4684 153.993 39.5393 154.04 39.5865V39.7284L154.111 39.7993V40.012C154.159 40.0592 154.182 40.1065 154.182 40.1538V40.2247C154.277 40.3192 154.324 40.3901 154.324 40.4374V40.5792C154.371 40.6265 154.395 40.721 154.395 40.8628V41.0046H154.466V41.4301C154.513 41.6191 154.537 41.761 154.537 41.8555V43.5572C154.489 43.6045 154.466 43.6754 154.466 43.7699V44.1954C154.419 44.3372 154.371 44.5026 154.324 44.6917V44.7626C154.324 44.8099 154.277 44.8571 154.182 44.9044V45.1171C154.135 45.1644 154.111 45.2353 154.111 45.3298L154.04 45.5426C154.04 45.5898 154.017 45.6371 153.969 45.6844C153.969 45.7316 153.946 45.8025 153.899 45.8971L153.757 46.0389V46.1098L153.686 46.3225L153.544 46.6061L153.473 46.8188C153.473 46.8661 153.426 46.9134 153.331 46.9606C153.331 47.0079 153.308 47.0788 153.26 47.1734C153.213 47.2206 153.166 47.2679 153.119 47.3152L153.048 47.457L152.835 47.6697L152.764 47.8115L152.622 48.0242C152.622 48.0715 152.575 48.1188 152.48 48.166C152.386 48.2606 152.315 48.3551 152.268 48.4497L152.055 48.5915C152.008 48.6387 151.96 48.686 151.913 48.7333L151.842 48.8751L151.771 48.946L151.63 49.0169C151.582 49.0642 151.535 49.1114 151.488 49.1587L151.346 49.3005C151.251 49.3478 151.181 49.3951 151.133 49.4423C151.039 49.4896 150.921 49.5841 150.779 49.7259L150.637 49.7968C150.59 49.8441 150.542 49.8677 150.495 49.8677C150.401 49.915 150.306 49.9387 150.212 49.9387V50.0096L150.07 50.1514C149.975 50.1514 149.904 50.175 149.857 50.2223C149.81 50.2695 149.762 50.2932 149.715 50.2932C149.668 50.3404 149.573 50.3641 149.432 50.3641C149.384 50.4114 149.337 50.435 149.29 50.435L106.392 67.8776ZM133.194 38.6648C130.122 35.8286 126.624 34.1505 122.7 33.6305C121.66 33.4887 120.621 33.4178 119.581 33.4178C112.726 33.4178 107.338 36.3486 103.414 42.21C101.382 45.1408 100.271 48.426 100.082 52.0658L133.194 38.6648Z" fill="#F50057"/>
<path d="M10.7122 27.2443C3.62154 34.4726 0.0509853 43.0292 0.000542137 52.9139L0.00033421 52.9622C0.000211069 52.9812 8.79588e-05 53.0002 0.000137759 53.0193L0 53.1266C0 60.1156 1.88074 66.61 5.64221 72.6098C5.77926 72.829 5.91882 73.0474 6.06086 73.2651L6.13278 73.3733L6.20181 73.4779C10.2424 79.718 15.622 84.2562 22.3406 87.0926C26.851 89.0309 31.5024 90 36.2947 90C36.3886 90 36.4827 89.9996 36.5767 89.9988C36.6707 89.9996 36.7646 90 36.8585 90C37.1202 90 37.3788 89.9909 37.6346 89.9731C39.6 89.8944 41.5964 89.6434 43.6241 89.22C50.9535 87.8018 57.2493 84.4453 62.5115 79.1507C69.4798 72.1393 73.1532 62.8074 73.1532 52.9139V29.1411C70.3541 28.8107 67.4997 29.4517 64.7523 29.9206C61.6513 30.2731 60.0772 31.1469 58.4656 32.1648C56.9383 33.1296 55.7472 34.3656 53.8866 36.3463L55.3577 37.7101C56.7814 38.9399 56.9462 41.2958 55.5969 42.6764L54.2023 44.1842C57.8505 51.238 56.9867 60.1136 51.318 66.3995C48.959 69.0174 46.0638 70.847 42.9556 71.8801C40.9306 72.6144 38.8512 72.9815 36.7176 72.9815C35.402 72.9815 34.0395 72.8397 32.63 72.556C28.1196 71.6105 24.3374 69.2941 21.2835 65.6068C18.3705 61.9195 16.914 57.7594 16.914 53.1266C16.914 48.4203 18.401 44.2729 21.3749 40.6842C21.6127 40.3904 21.8603 40.1019 22.1176 39.819C22.9655 38.8788 23.8828 38.0407 24.8545 37.305C28.2276 34.694 32.1585 33.3496 36.6471 33.2717C39.2915 33.3126 41.7334 33.8011 43.9728 34.737L45.3494 33.2485C46.5719 31.8223 48.919 31.6619 50.2975 33.019L51.5449 34.1755C53.3717 32.2305 54.8371 30.6744 56.7728 29.4517C58.6327 28.2769 60.6651 27.1613 64.3949 26.7373C67.3832 26.1875 70.1949 25.5576 73.1532 25.9359V8.50925C73.1532 6.19284 72.331 4.20735 70.6866 2.55277C69.0422 0.850925 67.0454 0 64.6962 0C62.394 0 60.4207 0.850925 58.7763 2.55277C57.0849 4.20735 56.2392 6.19284 56.2392 8.50925V22.0091C50.6184 18.306 44.1582 16.3873 36.8585 16.2532H36.3652C26.4047 16.395 17.8537 20.0587 10.7122 27.2443Z" fill="#F50057"/>
<path d="M75.1115 19.8228L77.3327 8.80069C77.4226 8.63653 77.5509 8.51901 77.6963 8.46745C77.8417 8.41589 77.9956 8.43336 78.1328 8.51698C78.27 8.6006 78.3822 8.74539 78.4511 8.92758C78.5199 9.10976 78.5413 9.3185 78.5117 9.51947L77.9009 19.8228L81.847 17.5427C81.9744 17.4269 82.7338 17.0331 82.8861 17.0537C83.0384 17.0743 83.1807 17.1662 83.2889 17.3139C83.3971 17.4615 83.4645 17.6557 83.4796 17.8635C83.4946 18.0713 83.4565 18.2798 83.3716 18.4535L78.932 24.03L86.8743 25.6558C86.8743 25.6558 89.5221 26.1864 89.6512 26.281C89.7803 26.3755 89.8828 26.5259 89.9425 26.7085C89.9919 26.8595 90.0098 27.0256 89.9949 27.1884C90.0098 27.3513 89.9919 27.5173 89.9425 27.6684C89.8828 27.8509 89.7803 28.0013 89.6512 28.0959C89.5221 28.1905 86.8743 28.721 86.8743 28.721L78.932 30.3469L83.3716 35.9234C83.4565 36.0971 83.4946 36.3056 83.4796 36.5133C83.4645 36.7211 83.3971 36.9153 83.2889 37.063C83.1807 37.2106 83.0384 37.3025 82.8861 37.3231C82.7338 37.3437 81.9744 36.9499 81.847 36.8341L77.9009 34.554L78.5117 44.8574C78.5413 45.0583 78.5199 45.2671 78.4511 45.4493C78.3822 45.6314 78.27 45.7762 78.1328 45.8599C77.9956 45.9435 77.8417 45.9609 77.6963 45.9094C77.5509 45.8578 77.4226 45.7403 77.3327 45.5761L75.1115 34.554V19.8228Z" fill="#F50057"/>
</svg>
