<svg width="524" height="85" viewBox="0 0 524 85" fill="none" xmlns="http://www.w3.org/2000/svg">
<path d="M478.605 63.8757C479.313 64.5398 480.065 65.1153 480.862 65.6023C483.696 67.5502 486.905 68.6127 490.491 68.7898H491.089C494.409 68.7898 497.508 67.9929 500.386 66.3992C502.422 65.2039 504.614 63.0789 506.96 60.0242C508.155 58.1648 509.815 56.9695 511.94 56.4382C512.56 56.2611 513.18 56.1726 513.8 56.1726C515.305 56.1726 516.7 56.571 517.983 57.3679C519.843 58.519 521.016 60.157 521.503 62.282C521.636 62.9903 521.702 63.6544 521.702 64.2742C521.702 65.7351 521.304 67.1075 520.507 68.3914C516.213 74.058 512.118 77.9981 508.222 80.2117C503.042 83.1335 497.508 84.5945 491.62 84.5945C489.938 84.5945 488.256 84.5059 486.573 84.3289C478.826 83.2664 472.23 80.0125 466.784 74.5671C463.774 71.5567 461.383 68.0815 459.612 64.1414C459.48 63.8315 459.347 63.5216 459.214 63.2117C459.081 62.8575 458.948 62.5033 458.815 62.1492C457.399 58.1205 456.69 54.114 456.69 50.1296C456.69 45.614 457.598 41.1648 459.413 36.782C462.069 30.407 466.319 25.338 472.163 21.575C477.786 17.989 484.138 16.019 491.222 15.6648H492.417C498.659 15.6648 504.569 17.5906 510.148 21.4421C515.726 25.2937 519.976 30.3627 522.898 36.6492C522.942 36.8263 523.03 37.0033 523.163 37.1804C523.163 37.269 523.185 37.3354 523.23 37.3796V37.5125L523.296 37.5789V37.7781C523.34 37.8223 523.362 37.8666 523.362 37.9109V37.9773C523.451 38.0658 523.495 38.1322 523.495 38.1765V38.3093C523.539 38.3536 523.562 38.4421 523.562 38.575V38.7078H523.628V39.1062C523.672 39.2833 523.694 39.4161 523.694 39.5046V41.0984C523.65 41.1427 523.628 41.2091 523.628 41.2976V41.696C523.584 41.8289 523.539 41.9838 523.495 42.1609V42.2273C523.495 42.2716 523.451 42.3158 523.362 42.3601V42.5593C523.318 42.6036 523.296 42.67 523.296 42.7585L523.23 42.9578C523.23 43.002 523.207 43.0463 523.163 43.0906C523.163 43.1348 523.141 43.2013 523.097 43.2898L522.964 43.4226V43.489L522.898 43.6882L522.765 43.9539L522.698 44.1531C522.698 44.1973 522.654 44.2416 522.565 44.2859C522.565 44.3302 522.543 44.3966 522.499 44.4851C522.455 44.5294 522.411 44.5737 522.366 44.6179L522.3 44.7507L522.101 44.95L522.034 45.0828L521.901 45.282C521.901 45.3263 521.857 45.3705 521.769 45.4148C521.68 45.5033 521.614 45.5919 521.569 45.6804L521.37 45.8132C521.326 45.8575 521.282 45.9018 521.237 45.946L521.171 46.0789L521.105 46.1453L520.972 46.2117C520.927 46.2559 520.883 46.3002 520.839 46.3445L520.706 46.4773C520.618 46.5216 520.551 46.5658 520.507 46.6101C520.418 46.6544 520.308 46.7429 520.175 46.8757L520.042 46.9421C519.998 46.9864 519.954 47.0085 519.909 47.0085C519.821 47.0528 519.732 47.075 519.644 47.075V47.1414L519.511 47.2742C519.422 47.2742 519.356 47.2963 519.312 47.3406C519.267 47.3848 519.223 47.407 519.179 47.407C519.135 47.4513 519.046 47.4734 518.913 47.4734C518.869 47.5177 518.825 47.5398 518.78 47.5398L478.605 63.8757ZM503.706 36.5164C500.829 33.8601 497.552 32.2885 493.878 31.8015C492.904 31.6687 491.93 31.6023 490.956 31.6023C484.537 31.6023 479.49 34.3471 475.815 39.8367C473.912 42.5815 472.871 45.6583 472.694 49.0671L503.706 36.5164Z" fill="white"/>
<path d="M448.722 84.5943C441.638 84.5943 435.042 82.5357 428.933 78.4185C422.336 74.08 418.418 68.5681 417.179 61.8832L416.183 44.9496L416.249 37.3458H414.921C412.752 37.3458 410.892 36.5932 409.343 35.088C407.749 33.5385 406.952 31.6349 406.952 29.3771C406.952 27.2078 407.749 25.3484 409.343 23.799C410.892 22.2052 412.752 21.4083 414.921 21.4083H416.249V8.27338C416.249 6.10411 417.024 4.2226 418.573 2.62885C420.123 1.07937 422.004 0.304629 424.218 0.304629C426.431 0.304629 428.291 1.1015 429.796 2.69525C431.39 4.24473 432.187 6.10411 432.187 8.27338L432.12 21.4083C432.12 21.4083 440.908 21.4083 443.077 21.4083C445.246 21.4083 447.106 22.2052 448.655 23.799C450.249 25.3484 451.046 27.2078 451.046 29.3771C451.046 31.6349 450.249 33.5385 448.655 35.088C447.106 36.5932 445.246 37.3458 443.077 37.3458H432.12L432.12 44.9496C432.12 45.4366 432.098 47.0304 432.054 49.7309C432.01 50.7491 431.987 51.6567 431.987 52.4536C431.987 53.2947 432.01 54.0473 432.054 54.7114C432.364 58.5629 433.581 61.4405 435.706 63.3442C439.469 66.8859 443.808 68.6568 448.722 68.6568C450.935 68.6568 452.817 69.4094 454.366 70.9146C455.916 72.5083 456.69 74.412 456.69 76.6255C456.69 78.8391 455.916 80.7206 454.366 82.2701C452.817 83.8195 450.935 84.5943 448.722 84.5943Z" fill="white"/>
<path d="M372.487 31.4694C367.44 31.5579 363.08 33.3951 359.405 36.9811C355.731 40.6556 353.894 45.0162 353.894 50.0631C353.894 54.4016 355.31 58.2975 358.144 61.7506C360.933 65.2037 364.452 67.373 368.702 68.2584C370.03 68.524 371.314 68.6568 372.554 68.6568C376.095 68.6568 379.46 67.6165 382.648 65.5357C387.03 62.7024 389.687 58.7845 390.616 53.7819C390.882 52.4095 391.015 51.0813 391.015 49.7975C391.015 45.6803 389.62 41.8951 386.831 38.442C383.024 33.8821 378.243 31.5579 372.487 31.4694ZM372.687 15.5319C382.028 15.6647 390.085 19.0957 396.858 25.8248C403.588 32.6425 406.952 40.722 406.952 50.0631V76.6256C406.952 78.8391 406.177 80.7206 404.628 82.2701C403.034 83.8196 401.153 84.5943 398.983 84.5943C395.043 84.5943 392.498 82.6907 391.347 78.8834C387.672 81.3626 383.688 83.0227 379.394 83.8639C377.003 84.3508 374.634 84.5943 372.288 84.5943C365.78 84.5943 359.538 82.6464 353.562 78.7506C345.504 73.4824 340.546 66.222 338.687 56.9694C338.2 54.6673 337.956 52.3652 337.956 50.0631C337.956 44.5735 339.284 39.2832 341.94 34.192C345.704 26.8873 351.304 21.6412 358.741 18.4537C363.124 16.5944 367.706 15.6204 372.487 15.5319H372.687Z" fill="white"/>
<path d="M266.716 23.5006C266.716 21.3313 267.513 19.472 269.106 17.9225C270.656 16.3287 272.515 15.5319 274.684 15.5319C278.669 15.5319 281.214 17.4355 282.321 21.2428C288.032 17.5683 294.341 15.7089 301.247 15.6647C308.197 15.6647 314.528 17.5462 320.239 21.3092C327.588 26.1347 332.458 33.1738 334.849 42.4264C335.424 44.5957 335.712 47.1412 335.712 50.0631V76.6256C335.712 78.8391 334.937 80.7206 333.388 82.2701C331.882 83.8196 330.001 84.5943 327.743 84.5943C325.574 84.5943 323.714 83.8196 322.165 82.2701C320.571 80.7206 319.774 78.8391 319.774 76.6256V50.0631C319.774 46.3444 318.734 42.9134 316.653 39.7701C314.528 36.5826 311.783 34.3027 308.419 32.9303C306.072 31.9563 303.726 31.4694 301.38 31.4694C299.166 31.4694 296.931 31.9121 294.673 32.7975C290.069 34.524 286.704 37.5787 284.579 41.9615C283.384 44.3522 282.742 47.0527 282.653 50.0631V76.6256C282.653 78.8391 281.878 80.7206 280.329 82.2701C278.78 83.8196 276.898 84.5943 274.684 84.5943C272.515 84.5943 270.656 83.8196 269.106 82.2701C267.513 80.7206 266.716 78.8391 266.716 76.6256V23.5006Z" fill="white"/>
<path d="M230.266 15.5319C239.961 15.7089 248.085 19.2063 254.637 26.0241C261.144 32.5761 264.398 40.5892 264.398 50.0631V50.3287C264.354 59.8027 261.034 67.8378 254.437 74.4342C249.479 79.3925 243.547 82.5357 236.641 83.8639C234.294 84.3508 231.992 84.5943 229.734 84.5943C225.219 84.5943 220.836 83.6868 216.586 81.8717C210.255 79.2154 205.186 74.9654 201.379 69.1217C197.483 63.2779 195.535 56.9251 195.535 50.0631C195.535 40.722 198.9 32.6425 205.629 25.8248C212.358 19.0957 220.415 15.6647 229.801 15.5319H230.266ZM230.066 31.4694C224.931 31.5579 220.57 33.3951 216.984 36.9811C213.31 40.6556 211.473 45.0162 211.473 50.0631C211.473 54.4016 212.845 58.2975 215.59 61.7506C218.467 65.2037 222.031 67.373 226.281 68.2584C227.609 68.524 228.893 68.6568 230.133 68.6568C233.63 68.6568 236.973 67.6165 240.16 65.5357C244.499 62.7024 247.177 58.7845 248.195 53.7819C248.461 52.4537 248.594 51.1699 248.594 49.9303C248.594 45.7688 247.155 41.9394 244.277 38.442C240.558 33.8821 235.821 31.5579 230.066 31.4694Z" fill="white"/>
<path d="M187.566 84.5943C180.483 84.5943 173.887 82.5357 167.777 78.4185C161.181 74.08 157.263 68.5683 156.023 61.8834L155.027 44.9498L155.094 37.3499H153.766C151.596 37.3499 149.737 36.5973 148.188 35.0921C146.594 33.5426 145.797 31.639 145.797 29.3812C145.797 27.2119 146.594 25.3525 148.188 23.803C149.737 22.2093 151.596 21.4124 153.766 21.4124H155.094V8.27747C155.094 6.1082 155.868 4.22668 157.418 2.63293C158.967 1.08346 160.849 0.308716 163.062 0.308716C165.276 0.308716 167.135 1.10559 168.641 2.69934C170.234 4.24882 171.031 6.1082 171.031 8.27747L170.965 21.4124C170.965 21.4124 179.753 21.4124 181.922 21.4124C184.091 21.4124 185.951 22.2093 187.5 23.803C189.094 25.3525 189.891 27.2119 189.891 29.3812C189.891 31.639 189.094 33.5426 187.5 35.0921C185.951 36.5973 184.091 37.3499 181.922 37.3499H170.965L170.965 44.9498C170.965 45.4368 170.943 47.0305 170.898 49.7311C170.854 50.7493 170.832 51.6568 170.832 52.4537C170.832 53.2949 170.854 54.0475 170.898 54.7115C171.208 58.5631 172.426 61.4407 174.551 63.3443C178.314 66.886 182.652 68.6568 187.566 68.6568C189.78 68.6568 191.661 69.4094 193.211 70.9146C194.76 72.5083 195.535 74.412 195.535 76.6255C195.535 78.8391 194.76 80.7206 193.211 82.2701C191.661 83.8195 189.78 84.5943 187.566 84.5943Z" fill="white"/>
<path d="M100.707 63.8757C101.415 64.5398 102.168 65.1153 102.965 65.6023C105.798 67.5502 109.008 68.6127 112.594 68.7898H113.191C116.512 68.7898 119.611 67.9929 122.488 66.3992C124.525 65.2039 126.716 63.0789 129.062 60.0242C130.258 58.1648 131.918 56.9695 134.043 56.4382C134.663 56.2611 135.283 56.1726 135.902 56.1726C137.408 56.1726 138.802 56.571 140.086 57.3679C141.945 58.519 143.118 60.157 143.605 62.282C143.738 62.9903 143.805 63.6544 143.805 64.2742C143.805 65.7351 143.406 67.1075 142.609 68.3914C138.315 74.058 134.22 77.9981 130.324 80.2117C125.145 83.1335 119.611 84.5945 113.723 84.5945C112.04 84.5945 110.358 84.5059 108.676 84.3289C100.928 83.2664 94.332 80.0125 88.8867 74.5671C85.8763 71.5567 83.4857 68.0815 81.7148 64.1414C81.582 63.8315 81.4492 63.5216 81.3164 63.2117C81.1836 62.8575 81.0508 62.5033 80.918 62.1492C79.5013 58.1205 78.793 54.114 78.793 50.1296C78.793 45.614 79.7005 41.1648 81.5156 36.782C84.1719 30.407 88.4219 25.338 94.2656 21.575C99.888 17.989 106.241 16.019 113.324 15.6648H114.52C120.762 15.6648 126.672 17.5906 132.25 21.4421C137.828 25.2937 142.078 30.3627 145 36.6492C145.044 36.8263 145.133 37.0033 145.266 37.1804C145.266 37.269 145.288 37.3354 145.332 37.3796V37.5125L145.398 37.5789V37.7781C145.443 37.8223 145.465 37.8666 145.465 37.9109V37.9773C145.553 38.0658 145.598 38.1322 145.598 38.1765V38.3093C145.642 38.3536 145.664 38.4421 145.664 38.575V38.7078H145.73V39.1062C145.775 39.2833 145.797 39.4161 145.797 39.5046V41.0984C145.753 41.1427 145.73 41.2091 145.73 41.2976V41.696C145.686 41.8289 145.642 41.9838 145.598 42.1609V42.2273C145.598 42.2716 145.553 42.3158 145.465 42.3601V42.5593C145.421 42.6036 145.398 42.67 145.398 42.7585L145.332 42.9578C145.332 43.002 145.31 43.0463 145.266 43.0906C145.266 43.1348 145.243 43.2013 145.199 43.2898L145.066 43.4226V43.489L145 43.6882L144.867 43.9539L144.801 44.1531C144.801 44.1973 144.757 44.2416 144.668 44.2859C144.668 44.3302 144.646 44.3966 144.602 44.4851C144.557 44.5294 144.513 44.5737 144.469 44.6179L144.402 44.7507L144.203 44.95L144.137 45.0828L144.004 45.282C144.004 45.3263 143.96 45.3705 143.871 45.4148C143.783 45.5033 143.716 45.5919 143.672 45.6804L143.473 45.8132C143.428 45.8575 143.384 45.9018 143.34 45.946L143.273 46.0789L143.207 46.1453L143.074 46.2117C143.03 46.2559 142.986 46.3002 142.941 46.3445L142.809 46.4773C142.72 46.5216 142.654 46.5658 142.609 46.6101C142.521 46.6544 142.41 46.7429 142.277 46.8757L142.145 46.9421C142.1 46.9864 142.056 47.0085 142.012 47.0085C141.923 47.0528 141.835 47.075 141.746 47.075V47.1414L141.613 47.2742C141.525 47.2742 141.458 47.2963 141.414 47.3406C141.37 47.3848 141.326 47.407 141.281 47.407C141.237 47.4513 141.148 47.4734 141.016 47.4734C140.971 47.5177 140.927 47.5398 140.883 47.5398L100.707 63.8757ZM125.809 36.5164C122.931 33.8601 119.655 32.2885 115.98 31.8015C115.007 31.6687 114.033 31.6023 113.059 31.6023C106.639 31.6023 101.592 34.3471 97.918 39.8367C96.0143 42.5815 94.974 45.6583 94.7969 49.0671L125.809 36.5164Z" fill="white"/>
<path d="M10.628 25.8249C3.94669 32.5941 0.582282 40.6072 0.534752 49.864L0.534556 49.9092C0.53444 49.9271 0.534324 49.9449 0.534371 49.9627L0.534241 50.0632C0.534241 56.6083 2.3064 62.6902 5.8507 68.3089C5.97984 68.5141 6.11133 68.7187 6.24518 68.9226L6.31294 69.0239L6.37799 69.1218C10.1853 74.9655 15.2543 79.2155 21.585 81.8718C25.835 83.6869 30.2178 84.5944 34.7335 84.5944C34.822 84.5944 34.9106 84.5941 34.9992 84.5933C35.0878 84.5941 35.1762 84.5945 35.2647 84.5945C35.5112 84.5945 35.7549 84.5859 35.996 84.5692C37.8479 84.4956 39.7291 84.2605 41.6397 83.864C48.546 82.5358 54.4782 79.3926 59.4366 74.4343C66.0026 67.8682 69.4639 59.1291 69.4639 49.864V29.4141C66.8264 29.1047 64.2329 28.0279 61.5481 28.3312C58.6261 28.6613 57.1428 29.4797 55.6244 30.4329C54.1852 31.3364 53.0628 32.4939 51.3097 34.3488L52.6959 35.6259C54.0374 36.7777 54.1926 38.9839 52.9212 40.2768L51.6071 41.6888C55.0447 48.2946 54.2308 56.6064 48.8894 62.493C46.6666 64.9446 43.9385 66.6581 41.0098 67.6255C39.1017 68.3131 37.1424 68.6569 35.1319 68.6569C33.8923 68.6569 32.6085 68.5241 31.2803 68.2585C27.0303 67.3731 23.4665 65.2038 20.5889 61.7507C17.8441 58.2976 16.4717 54.4018 16.4717 50.0632C16.4717 45.6559 17.8728 41.7719 20.675 38.4112C20.8991 38.136 21.1324 37.8658 21.3749 37.6009C22.1738 36.7204 23.0381 35.9355 23.9537 35.2465C27.1322 32.8014 30.8361 31.5424 35.0655 31.4695C37.5573 31.5078 39.8582 31.9652 41.9682 32.8417L43.2654 31.4478C44.4173 30.1122 46.6289 29.9619 47.9278 31.2328L49.1032 32.3158C50.8245 30.4944 52.2053 29.0372 54.0293 27.8921C55.7818 26.7919 57.6968 25.7472 61.2113 25.3502C64.1121 25.0225 66.6764 26.0583 69.4639 26.4126V8.27991C69.4639 6.11064 68.6892 4.25127 67.1397 2.70179C65.5902 1.10804 63.7087 0.311164 61.4952 0.311164C59.3259 0.311164 57.4665 1.10804 55.9171 2.70179C54.3233 4.25127 53.5264 6.11064 53.5264 8.27991V20.9222C48.2302 17.4544 42.143 15.6576 35.2647 15.532H34.7999C25.4144 15.6648 17.3572 19.0958 10.628 25.8249Z" fill="white"/>
<path d="M74.1966 40.1494L71.239 34.7159V22.7427V18.7892L79.5834 9.92414C79.7118 9.86677 79.8504 9.8658 79.9792 9.92137C80.108 9.97694 80.2201 10.0862 80.2993 10.2331C80.3785 10.38 80.4206 10.5569 80.4194 10.7381C80.4182 10.9193 80.3738 11.0952 80.2928 11.2403L79.5834 14.9932H83.4896C83.6283 14.9622 83.7707 14.9936 83.8946 15.0827C84.0184 15.1717 84.1167 15.3133 84.174 15.4852C84.2313 15.6572 84.2444 15.8497 84.2112 16.0326C84.178 16.2156 84.1004 16.3786 83.9906 16.4961L78.2615 22.634L85.3987 22.2446C86.0124 22.2446 86.2958 22.5597 86.329 22.7427C86.3622 22.9256 86.3491 23.1181 86.2918 23.2899C86.2345 23.4618 86.1363 23.6034 86.0124 23.6924C85.8886 23.7815 85.5373 24.0967 85.3987 24.0657L77.3166 28.8973L78.158 32.1252C78.2394 32.2887 78.276 32.485 78.2615 32.6806C78.2471 32.8762 78.1824 33.0591 78.0787 33.1981C77.9749 33.3371 77.8383 33.4236 77.6923 33.443C77.5462 33.4624 77.3996 33.4134 77.2775 33.3043L74.3578 32.9826L75.3275 39.4727C75.3559 39.6619 75.3354 39.8584 75.2693 40.03C75.2033 40.2015 75.0956 40.3378 74.9641 40.4165C74.8325 40.4952 74.6848 40.5117 74.5453 40.4631C74.4059 40.4146 74.2829 40.304 74.1966 40.1494Z" fill="white"/>
</svg>
