<svg width="3165" height="512" viewBox="0 0 3165 512" fill="none" xmlns="http://www.w3.org/2000/svg">
<path fill-rule="evenodd" clip-rule="evenodd" d="M0.306816 301.012C0.595741 244.888 21.0469 196.306 61.6605 155.265C102.565 114.467 151.543 93.6656 208.594 92.8603H211.419C253.23 93.622 290.232 104.516 322.427 125.541V48.892C322.427 35.74 327.271 24.4668 336.959 15.0725C346.377 5.40973 357.68 0.578369 370.866 0.578369C384.322 0.578369 395.759 5.40973 405.178 15.0725C414.596 24.4668 419.306 35.74 419.306 48.892V137.108C387.117 138.014 366.752 143.535 350.012 154.11C340.997 159.805 333.424 166.722 325.89 174.342C322.639 177.629 319.316 181.131 315.884 184.747L315.882 184.749C315.348 185.312 314.811 185.878 314.271 186.446C310.37 190.552 306.264 194.849 301.746 199.371C292.644 190.238 284.614 182.527 282.962 181.648C281.641 180.942 279.085 180.416 277.324 180.416C274.419 180.421 273.184 181.299 264.727 189.501L255.387 198.585L245.695 195.325C232.83 191.004 224.459 189.682 209.572 189.768C177.766 189.858 149.657 202.113 128.249 224.951C113 241.35 102.778 261.724 98.9048 283.593C97.0541 293.909 97.4931 314.017 99.7871 324.772C109.041 368.864 141.815 402.285 185.603 412.602C196.793 415.16 222.785 415.337 233.36 412.864C269.044 404.577 296.356 383.061 311.863 351.225C319.352 335.881 322.787 320.362 322.787 302.107C322.787 288.792 321.113 278.385 317.058 266.393L314.153 257.576L322.877 248.759C331.864 239.588 333.362 236.943 332.04 231.826C331.794 230.734 324.58 222.864 315.737 213.664C320.506 208.895 324.805 204.396 328.771 200.221C329.323 199.64 329.866 199.067 330.403 198.501C333.849 194.871 337.016 191.535 340.111 188.405C347.246 181.189 353.573 175.517 360.693 171.019C373.247 163.088 389.536 158.013 419.306 157.117V301.012C419.306 357.185 398.266 410.169 358.353 449.978C328.212 480.04 292.152 499.097 250.171 507.149C238.557 509.554 227.122 510.979 215.865 511.426C214.399 511.527 212.918 511.578 211.419 511.578C210.882 511.578 210.344 511.576 209.806 511.571C209.267 511.576 208.728 511.578 208.19 511.578C180.741 511.578 154.099 506.076 128.265 495.071C89.7823 478.967 58.9694 453.199 35.826 417.769L35.4306 417.176L35.0187 416.562C34.2051 415.325 33.4058 414.085 32.6208 412.841C11.0761 378.775 0.303711 341.901 0.303711 302.219L0.3045 301.61C0.304215 301.502 0.30492 301.394 0.305625 301.286L0.305625 301.286L0.306816 301.012ZM440.72 54.5092L429.141 108.087V126.818C431.672 126.819 434.179 127.34 436.517 128.353C438.857 129.366 440.982 130.851 442.773 132.723C444.563 134.596 445.984 136.818 446.953 139.264C447.922 141.71 448.42 144.332 448.42 146.98C448.42 149.627 447.922 152.249 446.953 154.695C445.984 157.141 444.563 159.364 442.773 161.236C440.982 163.108 438.857 164.593 436.517 165.606C434.179 166.619 431.672 167.141 429.141 167.141V184.689L441.528 242.004C442.03 242.857 442.745 243.469 443.556 243.737C444.367 244.005 445.225 243.914 445.99 243.479C446.755 243.044 447.381 242.291 447.765 241.344C448.149 240.397 448.268 239.311 448.103 238.266L444.697 184.689L466.704 196.545C467.414 197.148 471.649 199.195 472.499 199.088C473.348 198.981 474.142 198.503 474.745 197.735C475.349 196.968 475.724 195.958 475.808 194.877C475.892 193.797 475.68 192.713 475.206 191.809L450.447 162.812L494.741 154.357C494.741 154.357 509.507 151.598 510.227 151.107C510.947 150.615 511.518 149.833 511.851 148.883C512.127 148.098 512.304 147.247 512.304 146.388C512.304 145.529 512.127 144.678 511.851 143.892C511.518 142.943 510.947 142.161 510.227 141.669C509.507 141.177 494.741 138.418 494.741 138.418L450.447 129.964L475.206 100.966C475.68 100.063 475.892 98.9786 475.808 97.8982C475.724 96.8178 475.349 95.8078 474.745 95.0401C474.142 94.2723 473.348 93.7943 472.499 93.6873C471.649 93.5803 467.414 95.6278 466.704 96.23L444.697 108.087L448.103 54.5092C448.268 53.4641 448.149 52.3787 447.765 51.4313C447.381 50.484 446.755 49.7311 445.99 49.2962C445.225 48.8614 444.367 48.7706 443.556 49.0387C442.745 49.3068 442.03 49.9179 441.528 50.7715L440.72 54.5092Z" fill="#F50057"/>
<path d="M2891.27 385.975C2895.57 390.001 2900.13 393.49 2904.96 396.442C2922.14 408.251 2941.6 414.692 2963.34 415.766H2966.96C2987.09 415.766 3005.88 410.935 3023.32 401.273C3035.67 394.026 3048.95 381.144 3063.18 362.625C3070.42 351.353 3080.49 344.106 3093.37 340.886C3097.13 339.812 3100.88 339.275 3104.64 339.275C3113.77 339.275 3122.22 341.691 3130 346.522C3141.28 353.5 3148.39 363.43 3151.34 376.313C3152.15 380.607 3152.55 384.633 3152.55 388.39C3152.55 397.247 3150.13 405.567 3145.3 413.35C3119.27 447.704 3094.44 471.591 3070.82 485.01C3039.42 502.723 3005.88 511.58 2970.18 511.58C2959.98 511.58 2949.78 511.043 2939.58 509.97C2892.62 503.529 2852.63 483.802 2819.61 450.79C2801.36 432.54 2786.87 411.472 2776.14 387.585C2775.33 385.706 2774.53 383.828 2773.72 381.949C2772.91 379.802 2772.11 377.655 2771.3 375.508C2762.72 351.084 2758.42 326.795 2758.42 302.641C2758.42 275.265 2763.92 248.292 2774.93 221.722C2791.03 183.074 2816.8 152.343 2852.22 129.531C2886.31 107.791 2924.82 95.8479 2967.76 93.7008H2975.01C3012.85 93.7008 3048.68 105.376 3082.5 128.725C3116.32 152.075 3142.08 182.805 3159.8 220.917C3160.06 221.99 3160.6 223.064 3161.41 224.137C3161.41 224.674 3161.54 225.077 3161.81 225.345V226.15L3162.21 226.553V227.76C3162.48 228.029 3162.61 228.297 3162.61 228.566V228.968C3163.15 229.505 3163.42 229.907 3163.42 230.176V230.981C3163.69 231.249 3163.82 231.786 3163.82 232.591V233.397H3164.22V235.812C3164.49 236.886 3164.63 237.691 3164.63 238.228V247.889C3164.36 248.158 3164.22 248.56 3164.22 249.097V251.513C3163.96 252.318 3163.69 253.257 3163.42 254.331V254.733C3163.42 255.002 3163.15 255.27 3162.61 255.539V256.746C3162.35 257.015 3162.21 257.417 3162.21 257.954L3161.81 259.162C3161.81 259.43 3161.67 259.699 3161.41 259.967C3161.41 260.235 3161.27 260.638 3161 261.175L3160.2 261.98V262.382L3159.8 263.59L3158.99 265.2L3158.59 266.408C3158.59 266.677 3158.32 266.945 3157.78 267.213C3157.78 267.482 3157.65 267.884 3157.38 268.421C3157.11 268.689 3156.84 268.958 3156.57 269.226L3156.17 270.031L3154.96 271.239L3154.56 272.044L3153.76 273.252C3153.76 273.52 3153.49 273.789 3152.95 274.057C3152.41 274.594 3152.01 275.131 3151.74 275.668L3150.54 276.473C3150.27 276.741 3150 277.01 3149.73 277.278L3149.33 278.083L3148.93 278.486L3148.12 278.888C3147.85 279.157 3147.58 279.425 3147.32 279.693L3146.51 280.499C3145.97 280.767 3145.57 281.035 3145.3 281.304C3144.77 281.572 3144.09 282.109 3143.29 282.914L3142.48 283.317C3142.22 283.585 3141.95 283.719 3141.68 283.719C3141.14 283.988 3140.61 284.122 3140.07 284.122V284.524L3139.26 285.33C3138.73 285.33 3138.32 285.464 3138.06 285.732C3137.79 286 3137.52 286.135 3137.25 286.135C3136.98 286.403 3136.45 286.537 3135.64 286.537C3135.37 286.806 3135.1 286.94 3134.84 286.94L2891.27 385.975ZM3043.45 220.111C3026 204.008 3006.14 194.48 2983.87 191.528C2977.96 190.723 2972.06 190.32 2966.15 190.32C2927.24 190.32 2896.64 206.96 2874.37 240.24C2862.82 256.88 2856.52 275.533 2855.44 296.199L3043.45 220.111Z" fill="#F50057"/>
<path d="M2710.11 511.58C2667.17 511.58 2627.18 499.1 2590.14 474.14C2550.15 447.838 2526.4 414.423 2518.89 373.896L2512.85 271.238L2513.25 225.141H2505.2C2492.05 225.141 2480.77 220.578 2471.38 211.453C2461.72 202.059 2456.89 190.519 2456.89 176.831C2456.89 163.68 2461.72 152.408 2471.38 143.014C2480.77 133.352 2492.05 128.521 2505.2 128.521H2513.25V48.8917C2513.25 35.7407 2517.95 24.3342 2527.34 14.6723C2536.73 5.2787 2548.14 0.581922 2561.56 0.581922C2574.98 0.581922 2586.25 5.4129 2595.38 15.0748C2605.04 24.4684 2609.87 35.7407 2609.87 48.8917L2609.47 128.521C2609.47 128.521 2662.74 128.521 2675.89 128.521C2689.04 128.521 2700.32 133.352 2709.71 143.014C2719.37 152.408 2724.2 163.68 2724.2 176.831C2724.2 190.519 2719.37 202.059 2709.71 211.453C2700.32 220.578 2689.04 225.141 2675.89 225.141H2609.47L2609.47 271.238C2609.47 274.19 2609.33 283.852 2609.06 300.224C2608.8 306.397 2608.66 311.899 2608.66 316.73C2608.66 321.829 2608.8 326.392 2609.06 330.417C2610.94 353.767 2618.32 371.212 2631.21 382.753C2654.02 404.224 2680.32 414.96 2710.11 414.96C2723.53 414.96 2734.94 419.523 2744.33 428.648C2753.72 438.31 2758.42 449.85 2758.42 463.27C2758.42 476.689 2753.72 488.096 2744.33 497.489C2734.94 506.883 2723.53 511.58 2710.11 511.58Z" fill="#F50057"/>
<path d="M2242.27 189.514C2211.67 190.051 2185.24 201.189 2162.96 222.928C2140.69 245.204 2129.55 271.64 2129.55 302.237C2129.55 328.539 2138.14 352.156 2155.31 373.091C2172.22 394.025 2193.56 407.176 2219.32 412.544C2227.37 414.154 2235.16 414.959 2242.67 414.959C2264.14 414.959 2284.54 408.652 2303.86 396.038C2330.44 378.861 2346.54 355.109 2352.17 324.781C2353.79 316.461 2354.59 308.409 2354.59 300.626C2354.59 275.666 2346.14 252.719 2329.23 231.785C2306.15 204.141 2277.16 190.051 2242.27 189.514ZM2243.48 92.8943C2300.11 93.6994 2348.95 114.5 2390.02 155.294C2430.81 196.626 2451.21 245.607 2451.21 302.237V463.269C2451.21 476.688 2446.51 488.095 2437.12 497.488C2427.46 506.882 2416.05 511.579 2402.9 511.579C2379.01 511.579 2363.58 500.038 2356.6 476.957C2334.33 491.986 2310.17 502.051 2284.14 507.15C2269.65 510.103 2255.29 511.579 2241.06 511.579C2201.61 511.579 2163.77 499.77 2127.53 476.152C2078.69 444.213 2048.63 400.198 2037.36 344.105C2034.4 330.149 2032.93 316.193 2032.93 302.237C2032.93 268.957 2040.98 236.884 2057.08 206.02C2079.9 161.736 2113.85 129.932 2158.94 110.608C2185.51 99.3356 2213.28 93.4311 2242.27 92.8943H2243.48Z" fill="#F50057"/>
<path d="M1601.04 141.204C1601.04 128.053 1605.87 116.781 1615.53 107.387C1624.93 97.7253 1636.2 92.8943 1649.35 92.8943C1673.5 92.8943 1688.94 104.435 1695.65 127.516C1730.27 105.24 1768.51 93.9678 1810.38 93.6994C1852.52 93.6994 1890.9 105.106 1925.52 127.919C1970.07 157.173 1999.59 199.847 2014.09 255.94C2017.58 269.091 2019.32 284.523 2019.32 302.237V463.269C2019.32 476.688 2014.62 488.095 2005.23 497.488C1996.11 506.882 1984.7 511.579 1971.01 511.579C1957.86 511.579 1946.59 506.882 1937.19 497.488C1927.53 488.095 1922.7 476.688 1922.7 463.269V302.237C1922.7 279.692 1916.39 258.892 1903.78 239.836C1890.9 220.513 1874.26 206.691 1853.86 198.371C1839.64 192.466 1825.41 189.514 1811.19 189.514C1797.77 189.514 1784.21 192.198 1770.53 197.565C1742.61 208.033 1722.22 226.551 1709.33 253.122C1702.09 267.615 1698.2 283.986 1697.66 302.237V463.269C1697.66 476.688 1692.96 488.095 1683.57 497.488C1674.17 506.882 1662.77 511.579 1649.35 511.579C1636.2 511.579 1624.93 506.882 1615.53 497.488C1605.87 488.095 1601.04 476.688 1601.04 463.269V141.204Z" fill="#F50057"/>
<path d="M1380.06 92.8943C1438.84 93.9678 1488.09 115.17 1527.81 156.502C1567.26 196.224 1586.99 244.802 1586.99 302.237V303.847C1586.72 361.282 1566.59 409.994 1526.6 449.984C1496.54 480.043 1460.58 499.099 1418.71 507.15C1404.49 510.103 1390.53 511.579 1376.84 511.579C1349.47 511.579 1322.9 506.077 1297.13 495.073C1258.75 478.97 1228.02 453.204 1204.94 417.777C1181.32 382.35 1169.51 343.837 1169.51 302.237C1169.51 245.607 1189.91 196.626 1230.71 155.294C1271.5 114.5 1320.35 93.6994 1377.24 92.8943H1380.06ZM1378.86 189.514C1347.72 190.051 1321.29 201.189 1299.55 222.928C1277.27 245.204 1266.13 271.64 1266.13 302.237C1266.13 328.539 1274.45 352.156 1291.09 373.091C1308.54 394.025 1330.14 407.176 1355.91 412.544C1363.96 414.154 1371.74 414.959 1379.26 414.959C1400.46 414.959 1420.72 408.652 1440.05 396.038C1466.35 378.861 1482.59 355.109 1488.76 324.781C1490.37 316.729 1491.18 308.946 1491.18 301.431C1491.18 276.203 1482.45 252.987 1465.01 231.785C1442.46 204.141 1413.75 190.051 1378.86 189.514Z" fill="#F50057"/>
<path d="M1121.2 511.578C1078.26 511.578 1038.27 499.098 1001.23 474.138C961.244 447.836 937.492 414.422 929.977 373.896L923.939 271.238L924.342 225.164H916.29C903.139 225.164 891.867 220.602 882.473 211.476C872.811 202.083 867.98 190.542 867.98 176.854C867.98 163.703 872.811 152.431 882.473 143.038C891.867 133.376 903.139 128.545 916.29 128.545H924.342V48.9152C924.342 35.7642 929.039 24.3578 938.432 14.6958C947.826 5.30225 959.232 0.605469 972.652 0.605469C986.071 0.605469 997.343 5.43645 1006.47 15.0984C1016.13 24.492 1020.96 35.7642 1020.96 48.9152L1020.56 128.545C1020.56 128.545 1073.83 128.545 1086.98 128.545C1100.14 128.545 1111.41 133.376 1120.8 143.038C1130.46 152.431 1135.29 163.703 1135.29 176.854C1135.29 190.542 1130.46 202.083 1120.8 211.476C1111.41 220.602 1100.14 225.164 1086.98 225.164H1020.56L1020.56 271.238C1020.56 274.19 1020.42 283.852 1020.16 300.224C1019.89 306.396 1019.75 311.898 1019.75 316.729C1019.75 321.829 1019.89 326.391 1020.16 330.417C1022.03 353.767 1029.41 371.212 1042.3 382.753C1065.11 404.224 1091.41 414.959 1121.2 414.959C1134.62 414.959 1146.03 419.521 1155.42 428.647C1164.82 438.309 1169.51 449.849 1169.51 463.269C1169.51 476.688 1164.82 488.095 1155.42 497.488C1146.03 506.882 1134.62 511.578 1121.2 511.578Z" fill="#F50057"/>
<path d="M589.156 385.975C593.45 390.001 598.012 393.49 602.843 396.442C620.02 408.251 639.478 414.692 661.218 415.766H664.841C684.97 415.766 703.757 410.935 721.202 401.273C733.548 394.026 746.833 381.144 761.058 362.625C768.304 351.353 778.369 344.106 791.251 340.886C795.009 339.812 798.766 339.275 802.524 339.275C811.649 339.275 820.103 341.691 827.886 346.522C839.159 353.5 846.271 363.43 849.223 376.313C850.028 380.607 850.431 384.633 850.431 388.39C850.431 397.247 848.015 405.567 843.184 413.35C817.151 447.704 792.325 471.591 768.707 485.01C737.305 502.723 703.757 511.58 668.061 511.58C657.863 511.58 647.664 511.043 637.465 509.97C590.497 503.529 550.508 483.802 517.496 450.79C499.246 432.54 484.753 411.472 474.017 387.585C473.212 385.706 472.407 383.828 471.602 381.949C470.797 379.802 469.991 377.655 469.186 375.508C460.598 351.084 456.304 326.795 456.304 302.641C456.304 275.265 461.806 248.292 472.81 221.722C488.913 183.074 514.678 152.343 550.105 129.531C584.19 107.791 622.704 95.8479 665.646 93.7008H672.892C710.735 93.7008 746.565 105.376 780.382 128.725C814.199 152.075 839.964 182.805 857.677 220.917C857.946 221.99 858.482 223.064 859.288 224.137C859.288 224.674 859.422 225.077 859.69 225.345V226.15L860.093 226.553V227.76C860.361 228.029 860.495 228.297 860.495 228.566V228.968C861.032 229.505 861.301 229.907 861.301 230.176V230.981C861.569 231.249 861.703 231.786 861.703 232.591V233.397H862.106V235.812C862.374 236.886 862.508 237.691 862.508 238.228V247.889C862.24 248.158 862.106 248.56 862.106 249.097V251.513C861.837 252.318 861.569 253.257 861.301 254.331V254.733C861.301 255.002 861.032 255.27 860.495 255.539V256.746C860.227 257.015 860.093 257.417 860.093 257.954L859.69 259.162C859.69 259.43 859.556 259.699 859.288 259.967C859.288 260.235 859.153 260.638 858.885 261.175L858.08 261.98V262.382L857.677 263.59L856.872 265.2L856.47 266.408C856.47 266.677 856.201 266.945 855.664 267.213C855.664 267.482 855.53 267.884 855.262 268.421C854.993 268.689 854.725 268.958 854.457 269.226L854.054 270.031L852.846 271.239L852.444 272.044L851.639 273.252C851.639 273.52 851.37 273.789 850.833 274.057C850.297 274.594 849.894 275.131 849.626 275.668L848.418 276.473C848.15 276.741 847.881 277.01 847.613 277.278L847.21 278.083L846.808 278.486L846.002 278.888C845.734 279.157 845.466 279.425 845.197 279.693L844.392 280.499C843.855 280.767 843.453 281.035 843.184 281.304C842.648 281.572 841.977 282.109 841.171 282.914L840.366 283.317C840.098 283.585 839.829 283.719 839.561 283.719C839.024 283.988 838.488 284.122 837.951 284.122V284.524L837.146 285.33C836.609 285.33 836.206 285.464 835.938 285.732C835.67 286 835.401 286.135 835.133 286.135C834.864 286.403 834.328 286.537 833.522 286.537C833.254 286.806 832.986 286.94 832.717 286.94L589.156 385.975ZM741.331 220.111C723.886 204.008 704.025 194.48 681.749 191.528C675.845 190.723 669.94 190.32 664.036 190.32C625.119 190.32 594.523 206.96 572.247 240.24C560.706 256.88 554.399 275.533 553.326 296.199L741.331 220.111Z" fill="#F50057"/>
</svg>
