<svg width="143" height="24" viewBox="0 0 143 24" fill="none" xmlns="http://www.w3.org/2000/svg">
<path d="M0.303851 13.8929C0.316855 11.3668 1.23736 9.18013 3.06536 7.33289C4.90645 5.49658 7.11092 4.5603 9.67877 4.52406H9.80595C11.6878 4.55834 13.3533 5.04866 14.8023 5.995V2.54506C14.8023 1.95309 15.0204 1.44569 15.4564 1.02286C15.8804 0.587941 16.3891 0.370483 16.9826 0.370483C17.5882 0.370483 18.103 0.587941 18.5269 1.02286C18.9509 1.44569 19.1628 1.95309 19.1628 2.54506V6.51564C17.714 6.55641 16.7974 6.80491 16.0439 7.28089C15.6382 7.53721 15.2974 7.84855 14.9582 8.19153C14.8119 8.33948 14.6623 8.49708 14.5079 8.65983L14.5078 8.65993C14.4837 8.68527 14.4595 8.71074 14.4353 8.73631C14.2597 8.92114 14.0749 9.11451 13.8715 9.31804C13.4618 8.90701 13.1004 8.55993 13.0261 8.52038C12.9666 8.48858 12.8515 8.46493 12.7723 8.46493C12.6415 8.46512 12.5859 8.50467 12.2053 8.87381L11.7849 9.2827L11.3487 9.13594C10.7696 8.94148 10.3929 8.88196 9.72279 8.88584C8.29121 8.88991 7.02604 9.44149 6.06248 10.4694C5.37614 11.2075 4.91605 12.1246 4.74171 13.1089C4.65841 13.5732 4.67817 14.4782 4.78142 14.9623C5.19791 16.9469 6.67308 18.4512 8.64397 18.9155C9.14764 19.0307 10.3175 19.0386 10.7935 18.9273C12.3996 18.5543 13.6289 17.5859 14.3269 16.1529C14.664 15.4623 14.8186 14.7638 14.8186 13.9422C14.8186 13.3429 14.7432 12.8745 14.5607 12.3347L14.43 11.9379L14.8226 11.541C15.2271 11.1282 15.2945 11.0092 15.235 10.7789C15.224 10.7297 14.8993 10.3755 14.5013 9.96137C14.7159 9.74674 14.9094 9.54422 15.0879 9.35631C15.1127 9.33018 15.1372 9.30439 15.1614 9.27892C15.3165 9.11553 15.459 8.96537 15.5983 8.82447C15.9195 8.4997 16.2042 8.24439 16.5247 8.04195C17.0898 7.68499 17.8229 7.45654 19.1628 7.41622V13.8929C19.1628 16.4212 18.2158 18.806 16.4194 20.5978C15.0628 21.9509 13.4397 22.8086 11.5501 23.1711C11.0274 23.2793 10.5127 23.3434 10.006 23.3635C9.94008 23.3681 9.8734 23.3704 9.80595 23.3704C9.78175 23.3704 9.75753 23.3703 9.73331 23.3701C9.70906 23.3703 9.68481 23.3704 9.6606 23.3704C8.42513 23.3704 7.22599 23.1227 6.06319 22.6274C4.33111 21.9026 2.94423 20.7428 1.90256 19.1481L1.88476 19.1214L1.86622 19.0937C1.8296 19.0381 1.79362 18.9823 1.75829 18.9263C0.788572 17.393 0.303711 15.7333 0.303711 13.9472L0.303746 13.9198C0.303734 13.9149 0.303765 13.9101 0.303797 13.9052L0.303851 13.8929Z" fill="#E10075"/>
<path d="M19.6055 5.20939V6.0525C19.7194 6.05251 19.8323 6.07598 19.9375 6.12157C20.0428 6.16718 20.1385 6.23402 20.2191 6.31828C20.2997 6.40255 20.3636 6.50258 20.4072 6.61268C20.4508 6.72278 20.4733 6.84078 20.4733 6.95995C20.4733 7.07912 20.4508 7.19712 20.4072 7.30721C20.3636 7.41731 20.2997 7.51735 20.2191 7.60161C20.1385 7.68588 20.0428 7.75272 19.9375 7.79832C19.8323 7.84391 19.7194 7.86739 19.6055 7.8674V8.65722L20.163 11.237C20.1856 11.2754 20.2178 11.3029 20.2543 11.3149C20.2908 11.327 20.3295 11.3229 20.3639 11.3034C20.3983 11.2838 20.4265 11.2499 20.4438 11.2073C20.4611 11.1646 20.4664 11.1158 20.459 11.0687L20.3057 8.65722L21.2962 9.19088C21.3282 9.21799 21.5188 9.31015 21.557 9.30533C21.5953 9.30051 21.631 9.279 21.6581 9.24444C21.6853 9.20989 21.7022 9.16443 21.706 9.1158C21.7098 9.06717 21.7002 9.01837 21.6789 8.97772L20.5645 7.67254L22.5581 7.29201C22.5581 7.29201 23.2228 7.16784 23.2552 7.1457C23.2876 7.12356 23.3133 7.08836 23.3283 7.04563C23.3407 7.01028 23.3486 6.97198 23.3486 6.93331C23.3486 6.89464 23.3407 6.85633 23.3283 6.82098C23.3133 6.77825 23.2876 6.74305 23.2552 6.72091C23.2228 6.69877 22.5581 6.5746 22.5581 6.5746L20.5645 6.19407L21.6789 4.88889C21.7002 4.84824 21.7098 4.79944 21.706 4.75081C21.7022 4.70218 21.6853 4.65672 21.6581 4.62217C21.631 4.58761 21.5953 4.5661 21.557 4.56128C21.5188 4.55646 21.3282 4.64862 21.2962 4.67573L20.3057 5.20939L20.459 2.79789C20.4664 2.75085 20.4611 2.702 20.4438 2.65936C20.4265 2.61672 20.3983 2.58283 20.3639 2.56326C20.3295 2.54368 20.2908 2.5396 20.2543 2.55166C20.2178 2.56373 20.1856 2.59124 20.163 2.62966L19.6055 5.20939Z" fill="#E10075"/>
<path d="M130.425 17.717C130.618 17.8982 130.824 18.0553 131.041 18.1882C131.814 18.7197 132.69 19.0096 133.669 19.0579H133.832C134.738 19.0579 135.583 18.8405 136.369 18.4056C136.924 18.0794 137.522 17.4996 138.162 16.6661C138.489 16.1587 138.942 15.8325 139.521 15.6876C139.691 15.6393 139.86 15.6151 140.029 15.6151C140.44 15.6151 140.82 15.7238 141.17 15.9413C141.678 16.2553 141.998 16.7023 142.131 17.2822C142.167 17.4754 142.185 17.6566 142.185 17.8258C142.185 18.2244 142.076 18.5989 141.859 18.9492C140.687 20.4954 139.57 21.5706 138.507 22.1746C137.093 22.9718 135.583 23.3705 133.977 23.3705C133.518 23.3705 133.059 23.3463 132.6 23.298C130.486 23.0081 128.686 22.1202 127.2 20.6344C126.378 19.8129 125.726 18.8646 125.243 17.7895C125.207 17.705 125.17 17.6204 125.134 17.5358C125.098 17.4392 125.062 17.3426 125.025 17.2459C124.639 16.1466 124.446 15.0534 124.446 13.9662C124.446 12.734 124.693 11.52 125.188 10.3241C125.913 8.58454 127.073 7.20137 128.668 6.17457C130.202 5.19609 131.935 4.65853 133.868 4.56189H134.194C135.897 4.56189 137.51 5.08737 139.032 6.13833C140.554 7.18929 141.714 8.57246 142.511 10.2878C142.523 10.3361 142.547 10.3845 142.584 10.4328C142.584 10.4569 142.59 10.4751 142.602 10.4871V10.5234L142.62 10.5415V10.5959C142.632 10.6079 142.638 10.62 142.638 10.6321V10.6502C142.662 10.6744 142.674 10.6925 142.674 10.7046V10.7408C142.686 10.7529 142.692 10.7771 142.692 10.8133V10.8495H142.711V10.9583C142.723 11.0066 142.729 11.0428 142.729 11.067V11.5019C142.717 11.5139 142.711 11.5321 142.711 11.5562V11.6649C142.698 11.7012 142.686 11.7435 142.674 11.7918V11.8099C142.674 11.822 142.662 11.8341 142.638 11.8461V11.9005C142.626 11.9126 142.62 11.9307 142.62 11.9549L142.602 12.0092C142.602 12.0213 142.596 12.0334 142.584 12.0455C142.584 12.0575 142.578 12.0757 142.566 12.0998L142.529 12.1361V12.1542L142.511 12.2085L142.475 12.281L142.457 12.3354C142.457 12.3475 142.445 12.3595 142.421 12.3716C142.421 12.3837 142.415 12.4018 142.403 12.426C142.39 12.4381 142.378 12.4501 142.366 12.4622L142.348 12.4985L142.294 12.5528L142.276 12.5891L142.239 12.6434C142.239 12.6555 142.227 12.6676 142.203 12.6797C142.179 12.7038 142.161 12.728 142.149 12.7521L142.094 12.7884C142.082 12.8005 142.07 12.8125 142.058 12.8246L142.04 12.8609L142.022 12.879L141.986 12.8971C141.974 12.9092 141.962 12.9213 141.95 12.9333L141.913 12.9696C141.889 12.9817 141.871 12.9937 141.859 13.0058C141.835 13.0179 141.805 13.0421 141.768 13.0783L141.732 13.0964C141.72 13.1085 141.708 13.1145 141.696 13.1145C141.672 13.1266 141.648 13.1327 141.623 13.1327V13.1508L141.587 13.187C141.563 13.187 141.545 13.1931 141.533 13.2051C141.521 13.2172 141.509 13.2233 141.497 13.2233C141.484 13.2353 141.46 13.2414 141.424 13.2414C141.412 13.2535 141.4 13.2595 141.388 13.2595L130.425 17.717ZM137.275 10.2516C136.489 9.52678 135.595 9.09794 134.593 8.96506C134.327 8.92882 134.061 8.9107 133.796 8.9107C132.044 8.9107 130.667 9.65966 129.664 11.1576C129.145 11.9065 128.861 12.7461 128.812 13.6763L137.275 10.2516Z" fill="#E10075"/>
<path d="M122.271 23.3705C120.338 23.3705 118.538 22.8087 116.871 21.6853C115.071 20.5014 114.002 18.9975 113.664 17.1734L113.392 12.5528L113.41 10.4779H113.048C112.456 10.4779 111.949 10.2726 111.526 9.86186C111.091 9.43906 110.874 8.91962 110.874 8.30354C110.874 7.71162 111.091 7.20426 111.526 6.78146C111.949 6.34658 112.456 6.12914 113.048 6.12914H113.41V2.54505C113.41 1.95313 113.622 1.43973 114.045 1.00484C114.467 0.582044 114.981 0.370643 115.585 0.370643C116.189 0.370643 116.696 0.588084 117.107 1.02296C117.542 1.44577 117.759 1.95313 117.759 2.54505L117.741 6.12914C117.741 6.12914 120.139 6.12914 120.731 6.12914C121.323 6.12914 121.83 6.34658 122.253 6.78146C122.688 7.20426 122.905 7.71162 122.905 8.30354C122.905 8.91962 122.688 9.43906 122.253 9.86186C121.83 10.2726 121.323 10.4779 120.731 10.4779H117.741V12.5528C117.741 12.6856 117.735 13.1205 117.723 13.8574C117.711 14.1352 117.705 14.3829 117.705 14.6003C117.705 14.8299 117.711 15.0352 117.723 15.2164C117.808 16.2674 118.14 17.0526 118.72 17.572C119.746 18.5384 120.93 19.0216 122.271 19.0216C122.875 19.0216 123.389 19.227 123.811 19.6377C124.234 20.0726 124.446 20.592 124.446 21.196C124.446 21.8 124.234 22.3135 123.811 22.7363C123.389 23.1591 122.875 23.3705 122.271 23.3705Z" fill="#E10075"/>
<path d="M101.214 8.8744C99.8366 8.89856 98.6468 9.39988 97.6441 10.3784C96.6415 11.381 96.1402 12.5709 96.1402 13.948C96.1402 15.1318 96.5267 16.1949 97.2998 17.1371C98.0609 18.0794 99.0213 18.6713 100.181 18.9129C100.543 18.9854 100.894 19.0216 101.232 19.0216C102.198 19.0216 103.116 18.7377 103.986 18.17C105.182 17.3968 105.907 16.3278 106.161 14.9627C106.233 14.5882 106.269 14.2258 106.269 13.8755C106.269 12.7521 105.889 11.7192 105.128 10.777C104.089 9.53276 102.784 8.89856 101.214 8.8744ZM101.268 4.52559C103.817 4.56183 106.016 5.49803 107.864 7.33419C109.7 9.19452 110.618 11.3991 110.618 13.948V21.196C110.618 21.8 110.407 22.3134 109.984 22.7362C109.549 23.159 109.036 23.3704 108.444 23.3704C107.369 23.3704 106.674 22.851 106.36 21.8121C105.357 22.4886 104.27 22.9416 103.098 23.1711C102.446 23.304 101.8 23.3704 101.159 23.3704C99.3836 23.3704 97.6804 22.8389 96.0496 21.7759C93.851 20.3383 92.498 18.3572 91.9907 15.8325C91.8578 15.2043 91.7914 14.5762 91.7914 13.948C91.7914 12.4501 92.1538 11.0065 92.8786 9.61732C93.9054 7.62411 95.4335 6.19263 97.4629 5.32287C98.6589 4.81551 99.9091 4.54975 101.214 4.52559H101.268Z" fill="#E10075"/>
<path d="M72.3522 6.69999C72.3522 6.10807 72.5696 5.60071 73.0045 5.17791C73.4273 4.74303 73.9347 4.52559 74.5266 4.52559C75.6138 4.52559 76.3084 5.04503 76.6104 6.08391C78.1687 5.08127 79.8901 4.57391 81.7746 4.56183C83.6712 4.56183 85.3986 5.07523 86.957 6.10203C88.9622 7.41875 90.291 9.33948 90.9434 11.8642C91.1004 12.4561 91.1789 13.1507 91.1789 13.948V21.196C91.1789 21.8 90.9675 22.3134 90.5447 22.7362C90.134 23.159 89.6206 23.3704 89.0045 23.3704C88.4126 23.3704 87.9052 23.159 87.4824 22.7362C87.0476 22.3134 86.8301 21.8 86.8301 21.196V13.948C86.8301 12.9333 86.5462 11.9971 85.9785 11.1394C85.3986 10.2696 84.6497 9.64752 83.7316 9.27304C83.0913 9.00728 82.4511 8.8744 81.8109 8.8744C81.2069 8.8744 80.5968 8.99519 79.9807 9.2368C78.7244 9.70792 77.8063 10.5414 77.2265 11.7374C76.9003 12.3897 76.7252 13.1266 76.701 13.948V21.196C76.701 21.8 76.4896 22.3134 76.0668 22.7362C75.644 23.159 75.1306 23.3704 74.5266 23.3704C73.9347 23.3704 73.4273 23.159 73.0045 22.7362C72.5696 22.3134 72.3522 21.8 72.3522 21.196V6.69999Z" fill="#E10075"/>
<path d="M62.4062 4.52559C65.0517 4.57391 67.2684 5.52823 69.0562 7.38855C70.832 9.1764 71.7199 11.3629 71.7199 13.948V14.0205C71.7078 16.6056 70.8018 18.7981 69.0019 20.598C67.6489 21.951 66.0302 22.8087 64.1457 23.1711C63.5054 23.304 62.8773 23.3704 62.2612 23.3704C61.029 23.3704 59.8331 23.1228 58.6734 22.6275C56.946 21.9027 55.5628 20.743 54.5239 19.1484C53.4609 17.5539 52.9294 15.8204 52.9294 13.948C52.9294 11.3991 53.8475 9.19452 55.6836 7.33419C57.5198 5.49803 59.7183 4.56183 62.2793 4.52559H62.4062ZM62.3518 8.8744C60.9505 8.89856 59.7606 9.39988 58.7822 10.3784C57.7795 11.381 57.2782 12.5709 57.2782 13.948C57.2782 15.1318 57.6527 16.1949 58.4016 17.1371C59.1868 18.0794 60.1593 18.6713 61.319 18.9129C61.6814 18.9854 62.0317 19.0216 62.3699 19.0216C63.3242 19.0216 64.2363 18.7377 65.106 18.17C66.2899 17.3968 67.0207 16.3278 67.2986 14.9627C67.371 14.6003 67.4073 14.25 67.4073 13.9118C67.4073 12.7762 67.0147 11.7313 66.2295 10.777C65.2148 9.53276 63.9222 8.89856 62.3518 8.8744Z" fill="#E10075"/>
<path d="M50.755 23.3704C48.8222 23.3704 47.0223 22.8087 45.3552 21.6852C43.5553 20.5014 42.4862 18.9974 42.148 17.1734L41.8762 12.5528L41.8943 10.479H41.5319C40.94 10.479 40.4326 10.2736 40.0098 9.86292C39.575 9.44012 39.3575 8.92068 39.3575 8.3046C39.3575 7.71268 39.575 7.20532 40.0098 6.78251C40.4326 6.34763 40.94 6.13019 41.5319 6.13019H41.8943V2.54611C41.8943 1.95418 42.1057 1.44078 42.5285 1.0059C42.9513 0.583101 43.4647 0.371701 44.0687 0.371701C44.6727 0.371701 45.1801 0.589141 45.5908 1.02402C46.0257 1.44682 46.2431 1.95418 46.2431 2.54611L46.225 6.13019C46.225 6.13019 48.6229 6.13019 49.2148 6.13019C49.8067 6.13019 50.3141 6.34763 50.7369 6.78251C51.1718 7.20532 51.3892 7.71268 51.3892 8.3046C51.3892 8.92068 51.1718 9.44012 50.7369 9.86292C50.3141 10.2736 49.8067 10.479 49.2148 10.479H46.225L46.225 12.5528C46.225 12.6856 46.2189 13.1205 46.2069 13.8574C46.1948 14.1352 46.1887 14.3829 46.1887 14.6003C46.1887 14.8298 46.1948 15.0352 46.2069 15.2164C46.2914 16.2674 46.6236 17.0526 47.2035 17.572C48.2303 18.5384 49.4141 19.0216 50.755 19.0216C51.359 19.0216 51.8724 19.2269 52.2952 19.6377C52.718 20.0726 52.9294 20.592 52.9294 21.196C52.9294 21.8 52.718 22.3134 52.2952 22.7362C51.8724 23.159 51.359 23.3704 50.755 23.3704Z" fill="#E10075"/>
<path d="M26.8077 17.717C27.001 17.8982 27.2064 18.0553 27.4238 18.1882C28.1969 18.7197 29.0727 19.0096 30.0512 19.0579H30.2143C31.1203 19.0579 31.9659 18.8405 32.7511 18.4056C33.3068 18.0794 33.9047 17.4996 34.545 16.6661C34.8711 16.1587 35.3241 15.8325 35.904 15.6876C36.0731 15.6393 36.2422 15.6151 36.4113 15.6151C36.822 15.6151 37.2026 15.7238 37.5529 15.9413C38.0603 16.2553 38.3804 16.7023 38.5133 17.2822C38.5495 17.4754 38.5676 17.6566 38.5676 17.8258C38.5676 18.2244 38.4589 18.5989 38.2415 18.9492C37.0697 20.4954 35.9523 21.5706 34.8892 22.1746C33.4759 22.9718 31.9659 23.3705 30.3592 23.3705C29.9002 23.3705 29.4412 23.3463 28.9821 23.298C26.8681 23.0081 25.0682 22.1202 23.5823 20.6344C22.7609 19.8129 22.1086 18.8646 21.6254 17.7895C21.5891 17.705 21.5529 17.6204 21.5167 17.5358C21.4804 17.4392 21.4442 17.3426 21.4079 17.2459C21.0214 16.1466 20.8281 15.0534 20.8281 13.9662C20.8281 12.734 21.0757 11.52 21.571 10.3241C22.2958 8.58454 23.4555 7.20137 25.0501 6.17457C26.5842 5.19609 28.3177 4.65853 30.2505 4.56189H30.5767C32.28 4.56189 33.8926 5.08737 35.4147 6.13833C36.9368 7.18929 38.0965 8.57246 38.8938 10.2878C38.9059 10.3361 38.93 10.3845 38.9663 10.4328C38.9663 10.4569 38.9723 10.4751 38.9844 10.4871V10.5234L39.0025 10.5415V10.5959C39.0146 10.6079 39.0206 10.62 39.0206 10.6321V10.6502C39.0448 10.6744 39.0569 10.6925 39.0569 10.7046V10.7408C39.0689 10.7529 39.075 10.7771 39.075 10.8133V10.8495H39.0931V10.9583C39.1052 11.0066 39.1112 11.0428 39.1112 11.067V11.5019C39.0991 11.5139 39.0931 11.5321 39.0931 11.5562V11.6649C39.081 11.7012 39.0689 11.7435 39.0569 11.7918V11.8099C39.0569 11.822 39.0448 11.8341 39.0206 11.8461V11.9005C39.0085 11.9126 39.0025 11.9307 39.0025 11.9549L38.9844 12.0092C38.9844 12.0213 38.9783 12.0334 38.9663 12.0455C38.9663 12.0575 38.9602 12.0757 38.9481 12.0998L38.9119 12.1361V12.1542L38.8938 12.2085L38.8575 12.281L38.8394 12.3354C38.8394 12.3475 38.8273 12.3595 38.8032 12.3716C38.8032 12.3837 38.7971 12.4018 38.7851 12.426C38.773 12.4381 38.7609 12.4501 38.7488 12.4622L38.7307 12.4985L38.6763 12.5528L38.6582 12.5891L38.622 12.6434C38.622 12.6555 38.6099 12.6676 38.5857 12.6797C38.5616 12.7038 38.5435 12.728 38.5314 12.7521L38.477 12.7884C38.4649 12.8005 38.4529 12.8125 38.4408 12.8246L38.4227 12.8609L38.4045 12.879L38.3683 12.8971C38.3562 12.9092 38.3441 12.9213 38.3321 12.9333L38.2958 12.9696C38.2717 12.9817 38.2535 12.9937 38.2415 13.0058C38.2173 13.0179 38.1871 13.0421 38.1509 13.0783L38.1146 13.0964C38.1025 13.1085 38.0905 13.1145 38.0784 13.1145C38.0542 13.1266 38.0301 13.1327 38.0059 13.1327V13.1508L37.9697 13.187C37.9455 13.187 37.9274 13.1931 37.9153 13.2051C37.9032 13.2172 37.8911 13.2233 37.8791 13.2233C37.867 13.2353 37.8428 13.2414 37.8066 13.2414C37.7945 13.2535 37.7824 13.2595 37.7703 13.2595L26.8077 17.717ZM33.6571 10.2516C32.8719 9.52678 31.978 9.09794 30.9753 8.96506C30.7096 8.92882 30.4438 8.9107 30.178 8.9107C28.4264 8.9107 27.0493 9.65966 26.0467 11.1576C25.5272 11.9065 25.2433 12.7461 25.195 13.6763L33.6571 10.2516Z" fill="#E10075"/>
</svg>
