<svg width="560" height="91" viewBox="0 0 560 91" fill="none" xmlns="http://www.w3.org/2000/svg">
<path d="M511.854 68.3413C512.61 69.0503 513.414 69.6648 514.265 70.1848C517.29 72.2647 520.717 73.3991 524.546 73.5882H525.184C528.729 73.5882 532.038 72.7374 535.111 71.0356C537.285 69.7594 539.625 67.4904 542.13 64.2288C543.407 62.2434 545.179 60.9672 547.448 60.3999C548.11 60.2108 548.772 60.1163 549.434 60.1163C551.041 60.1163 552.53 60.5417 553.901 61.3926C555.886 62.6216 557.139 64.3706 557.659 66.6395C557.8 67.3959 557.871 68.1049 557.871 68.7667C557.871 70.3266 557.446 71.792 556.595 73.1628C552.01 79.2133 547.637 83.4204 543.478 85.7839C537.947 88.9037 532.038 90.4636 525.751 90.4636C523.955 90.4636 522.159 90.369 520.363 90.18C512.09 89.0455 505.047 85.5711 499.233 79.7569C496.019 76.5426 493.466 72.8319 491.575 68.6249C491.433 68.294 491.292 67.9631 491.15 67.6322C491.008 67.2541 490.866 66.8759 490.724 66.4977C489.212 62.1962 488.455 57.9183 488.455 53.664C488.455 48.8424 489.425 44.0918 491.363 39.4121C494.199 32.6052 498.737 27.1928 504.976 23.1749C510.98 19.346 517.763 17.2425 525.326 16.8643H526.602C533.267 16.8643 539.578 18.9206 545.534 23.0331C551.49 27.1455 556.028 32.558 559.148 39.2703C559.195 39.4594 559.289 39.6484 559.431 39.8375C559.431 39.9321 559.455 40.003 559.502 40.0502V40.192L559.573 40.2629V40.4757C559.62 40.5229 559.644 40.5702 559.644 40.6175V40.6884C559.738 40.7829 559.786 40.8538 559.786 40.9011V41.0429C559.833 41.0902 559.857 41.1847 559.857 41.3265V41.4683H559.928V41.8938C559.975 42.0828 559.998 42.2246 559.998 42.3192V44.0209C559.951 44.0682 559.928 44.1391 559.928 44.2336V44.659C559.88 44.8009 559.833 44.9663 559.786 45.1554V45.2263C559.786 45.2736 559.738 45.3208 559.644 45.3681V45.5808C559.597 45.6281 559.573 45.699 559.573 45.7935L559.502 46.0062C559.502 46.0535 559.478 46.1008 559.431 46.148C559.431 46.1953 559.408 46.2662 559.36 46.3608L559.219 46.5026V46.5735L559.148 46.7862L559.006 47.0698L558.935 47.2825C558.935 47.3298 558.888 47.3771 558.793 47.4243C558.793 47.4716 558.769 47.5425 558.722 47.637C558.675 47.6843 558.628 47.7316 558.58 47.7789L558.509 47.9207L558.297 48.1334L558.226 48.2752L558.084 48.4879C558.084 48.5352 558.037 48.5824 557.942 48.6297C557.848 48.7243 557.777 48.8188 557.73 48.9133L557.517 49.0551C557.47 49.1024 557.422 49.1497 557.375 49.197L557.304 49.3388L557.233 49.4097L557.091 49.4806C557.044 49.5278 556.997 49.5751 556.95 49.6224L556.808 49.7642C556.713 49.8115 556.642 49.8587 556.595 49.906C556.5 49.9533 556.382 50.0478 556.241 50.1896L556.099 50.2605C556.051 50.3078 556.004 50.3314 555.957 50.3314C555.862 50.3787 555.768 50.4023 555.673 50.4023V50.4732L555.531 50.6151C555.437 50.6151 555.366 50.6387 555.319 50.686C555.271 50.7332 555.224 50.7569 555.177 50.7569C555.13 50.8041 555.035 50.8278 554.893 50.8278C554.846 50.875 554.799 50.8987 554.752 50.8987L511.854 68.3413ZM538.656 39.1285C535.584 36.2923 532.086 34.6142 528.162 34.0942C527.122 33.9524 526.082 33.8815 525.042 33.8815C518.188 33.8815 512.799 36.8122 508.876 42.6737C506.843 45.6044 505.733 48.8897 505.544 52.5295L538.656 39.1285Z" fill="white"/>
<path d="M479.947 90.4634C472.384 90.4634 465.34 88.2653 458.817 83.8692C451.774 79.2368 447.591 73.3516 446.267 66.2138L445.203 48.1331L445.274 40.0142H443.856C441.54 40.0142 439.555 39.2106 437.9 37.6034C436.199 35.949 435.348 33.9163 435.348 31.5056C435.348 29.1894 436.199 27.204 437.9 25.5496C439.555 23.8479 441.54 22.997 443.856 22.997H445.274V8.97223C445.274 6.656 446.102 4.64703 447.756 2.94531C449.41 1.29087 451.419 0.463645 453.783 0.463645C456.146 0.463645 458.132 1.3145 459.739 3.01622C461.441 4.67067 462.292 6.656 462.292 8.97223L462.221 22.997C462.221 22.997 471.604 22.997 473.92 22.997C476.236 22.997 478.221 23.8479 479.876 25.5496C481.578 27.204 482.429 29.1894 482.429 31.5056C482.429 33.9163 481.578 35.949 479.876 37.6034C478.221 39.2106 476.236 40.0142 473.92 40.0142H462.221L462.221 48.1331C462.221 48.653 462.197 50.3548 462.15 53.2382C462.102 54.3254 462.079 55.2945 462.079 56.1453C462.079 57.0435 462.102 57.847 462.15 58.5561C462.481 62.6686 463.781 65.7411 466.049 67.7737C470.067 71.5553 474.7 73.4462 479.947 73.4462C482.31 73.4462 484.319 74.2498 485.974 75.857C487.628 77.5587 488.455 79.5913 488.455 81.9548C488.455 84.3183 487.628 86.3273 485.974 87.9817C484.319 89.6362 482.31 90.4634 479.947 90.4634Z" fill="white"/>
<path d="M397.548 33.7394C392.159 33.834 387.503 35.7957 383.58 39.6245C379.656 43.5479 377.695 48.204 377.695 53.5928C377.695 58.2252 379.207 62.385 382.233 66.072C385.211 69.7591 388.968 72.0753 393.506 73.0207C394.925 73.3043 396.295 73.4461 397.619 73.4461C401.4 73.4461 404.993 72.3353 408.396 70.1136C413.076 67.0883 415.912 62.9049 416.905 57.5634C417.189 56.0981 417.33 54.68 417.33 53.3092C417.33 48.9131 415.841 44.8715 412.863 41.1844C408.798 36.3156 403.693 33.834 397.548 33.7394ZM397.761 16.7223C407.735 16.8641 416.338 20.5275 423.57 27.7125C430.755 34.9921 434.348 43.6188 434.348 53.5928V81.9547C434.348 84.3182 433.52 86.3272 431.866 87.9816C430.164 89.636 428.155 90.4633 425.839 90.4633C421.632 90.4633 418.914 88.4307 417.685 84.3655C413.762 87.0126 409.507 88.7852 404.922 89.6833C402.37 90.2033 399.841 90.4633 397.335 90.4633C390.387 90.4633 383.722 88.3834 377.34 84.2236C368.737 78.5985 363.443 70.8463 361.457 60.9669C360.937 58.5088 360.677 56.0508 360.677 53.5928C360.677 47.7313 362.096 42.0826 364.932 36.6465C368.95 28.847 374.929 23.2455 382.871 19.8421C387.55 17.8567 392.443 16.8168 397.548 16.7223H397.761Z" fill="white"/>
<path d="M284.611 25.2308C284.611 22.9146 285.462 20.9293 287.164 19.2748C288.818 17.5731 290.803 16.7223 293.12 16.7223C297.374 16.7223 300.092 18.7549 301.274 22.8201C307.371 18.8967 314.107 16.9113 321.481 16.8641C328.903 16.8641 335.662 18.873 341.76 22.891C349.607 28.0434 354.807 35.5593 357.359 45.4387C357.974 47.7549 358.281 50.473 358.281 53.5928V81.9547C358.281 84.3182 357.454 86.3272 355.799 87.9816C354.192 89.636 352.183 90.4633 349.772 90.4633C347.456 90.4633 345.471 89.636 343.816 87.9816C342.115 86.3272 341.264 84.3182 341.264 81.9547V53.5928C341.264 49.6221 340.153 45.9587 337.931 42.6025C335.662 39.1991 332.732 36.7647 329.139 35.2993C326.634 34.2594 324.129 33.7394 321.623 33.7394C319.26 33.7394 316.873 34.2121 314.462 35.1575C309.546 37.001 305.953 40.2627 303.684 44.9424C302.408 47.495 301.723 50.3784 301.628 53.5928V81.9547C301.628 84.3182 300.801 86.3272 299.146 87.9816C297.492 89.636 295.483 90.4633 293.12 90.4633C290.803 90.4633 288.818 89.636 287.164 87.9816C285.462 86.3272 284.611 84.3182 284.611 81.9547V25.2308Z" fill="white"/>
<path d="M245.691 16.7223C256.043 16.9113 264.717 20.6457 271.713 27.9252C278.662 34.9212 282.136 43.477 282.136 53.5928V53.8764C282.089 63.9922 278.544 72.5716 271.501 79.6148C266.206 84.9091 259.872 88.2652 252.498 89.6833C249.993 90.2033 247.535 90.4633 245.124 90.4633C240.303 90.4633 235.623 89.4942 231.085 87.5562C224.325 84.72 218.913 80.1821 214.848 73.9424C210.688 67.7028 208.608 60.9196 208.608 53.5928C208.608 43.6188 212.201 34.9921 219.386 27.7125C226.571 20.5275 235.174 16.8641 245.195 16.7223H245.691ZM245.479 33.7394C239.995 33.834 235.339 35.7957 231.51 39.6245C227.587 43.5479 225.625 48.204 225.625 53.5928C225.625 58.2252 227.091 62.385 230.021 66.072C233.094 69.7591 236.899 72.0753 241.437 73.0207C242.855 73.3043 244.226 73.4461 245.55 73.4461C249.284 73.4461 252.853 72.3353 256.256 70.1136C260.889 67.0883 263.748 62.9049 264.836 57.5634C265.119 56.1453 265.261 54.7745 265.261 53.451C265.261 49.0076 263.725 44.9187 260.652 41.1844C256.682 36.3156 251.624 33.834 245.479 33.7394Z" fill="white"/>
<path d="M200.1 90.4632C192.536 90.4632 185.493 88.2652 178.97 83.8691C171.927 79.2366 167.743 73.3516 166.42 66.2138L165.356 48.1331L165.427 40.0184H164.009C161.693 40.0184 159.708 39.2148 158.053 37.6076C156.351 35.9532 155.501 33.9206 155.501 31.5098C155.501 29.1936 156.351 27.2082 158.053 25.5538C159.708 23.8521 161.693 23.0012 164.009 23.0012H165.427V8.97644C165.427 6.66021 166.254 4.65124 167.909 2.94953C169.563 1.29508 171.572 0.467857 173.936 0.467857C176.299 0.467857 178.285 1.31872 179.892 3.02043C181.594 4.67488 182.444 6.66021 182.444 8.97644L182.373 23.0012C182.373 23.0012 191.757 23.0012 194.073 23.0012C196.389 23.0012 198.374 23.8521 200.029 25.5538C201.73 27.2082 202.581 29.1936 202.581 31.5098C202.581 33.9206 201.73 35.9532 200.029 37.6076C198.374 39.2148 196.389 40.0184 194.073 40.0184H182.373L182.373 48.1331C182.373 48.6531 182.35 50.3548 182.302 53.2382C182.255 54.3255 182.232 55.2945 182.232 56.1453C182.232 57.0435 182.255 57.8471 182.302 58.5561C182.633 62.6686 183.933 65.7411 186.202 67.7737C190.22 71.5553 194.853 73.4461 200.1 73.4461C202.463 73.4461 204.472 74.2497 206.126 75.8568C207.781 77.5585 208.608 79.5912 208.608 81.9546C208.608 84.3181 207.781 86.3271 206.126 87.9816C204.472 89.636 202.463 90.4632 200.1 90.4632Z" fill="white"/>
<path d="M106.392 68.3413C107.149 69.0503 107.952 69.6648 108.803 70.1848C111.828 72.2647 115.255 73.3992 119.084 73.5882H119.722C123.268 73.5882 126.577 72.7374 129.649 71.0357C131.823 69.7594 134.163 67.4904 136.669 64.2288C137.945 62.2435 139.718 60.9672 141.987 60.3999C142.648 60.2109 143.31 60.1163 143.972 60.1163C145.579 60.1163 147.068 60.5418 148.439 61.3926C150.424 62.6216 151.677 64.3706 152.197 66.6396C152.339 67.3959 152.41 68.1049 152.41 68.7667C152.41 70.3266 151.984 71.792 151.133 73.1628C146.548 79.2134 142.176 83.4204 138.016 85.7839C132.485 88.9037 126.577 90.4636 120.29 90.4636C118.493 90.4636 116.697 90.3691 114.901 90.18C106.629 89.0455 99.5854 85.5712 93.7712 79.757C90.5569 76.5426 88.0043 72.8319 86.1135 68.6249C85.9717 68.294 85.8299 67.9631 85.6881 67.6322C85.5462 67.2541 85.4044 66.8759 85.2626 66.4978C83.75 62.1962 82.9937 57.9183 82.9937 53.664C82.9937 48.8425 83.9627 44.0918 85.9008 39.4121C88.737 32.6052 93.2749 27.1928 99.5145 23.1749C105.518 19.346 112.301 17.2425 119.864 16.8644H121.14C127.806 16.8644 134.116 18.9206 140.072 23.0331C146.028 27.1456 150.566 32.558 153.686 39.2703C153.733 39.4594 153.828 39.6485 153.969 39.8375C153.969 39.9321 153.993 40.003 154.04 40.0503V40.1921L154.111 40.263V40.4757C154.159 40.5229 154.182 40.5702 154.182 40.6175V40.6884C154.277 40.7829 154.324 40.8538 154.324 40.9011V41.0429C154.371 41.0902 154.395 41.1847 154.395 41.3265V41.4683H154.466V41.8938C154.513 42.0829 154.537 42.2247 154.537 42.3192V44.0209C154.489 44.0682 154.466 44.1391 154.466 44.2336V44.6591C154.419 44.8009 154.371 44.9663 154.324 45.1554V45.2263C154.324 45.2736 154.277 45.3208 154.182 45.3681V45.5808C154.135 45.6281 154.111 45.699 154.111 45.7935L154.04 46.0063C154.04 46.0535 154.017 46.1008 153.969 46.1481C153.969 46.1953 153.946 46.2662 153.899 46.3608L153.757 46.5026V46.5735L153.686 46.7862L153.544 47.0698L153.473 47.2825C153.473 47.3298 153.426 47.3771 153.331 47.4244C153.331 47.4716 153.308 47.5425 153.26 47.6371C153.213 47.6843 153.166 47.7316 153.119 47.7789L153.048 47.9207L152.835 48.1334L152.764 48.2752L152.622 48.4879C152.622 48.5352 152.575 48.5825 152.48 48.6297C152.386 48.7243 152.315 48.8188 152.268 48.9134L152.055 49.0552C152.008 49.1024 151.96 49.1497 151.913 49.197L151.842 49.3388L151.771 49.4097L151.63 49.4806C151.582 49.5279 151.535 49.5751 151.488 49.6224L151.346 49.7642C151.251 49.8115 151.181 49.8588 151.133 49.906C151.039 49.9533 150.921 50.0478 150.779 50.1896L150.637 50.2606C150.59 50.3078 150.542 50.3315 150.495 50.3315C150.401 50.3787 150.306 50.4024 150.211 50.4024V50.4733L150.07 50.6151C149.975 50.6151 149.904 50.6387 149.857 50.686C149.81 50.7332 149.762 50.7569 149.715 50.7569C149.668 50.8042 149.573 50.8278 149.432 50.8278C149.384 50.8751 149.337 50.8987 149.29 50.8987L106.392 68.3413ZM133.194 39.1285C130.122 36.2923 126.624 34.6142 122.7 34.0942C121.66 33.9524 120.621 33.8815 119.581 33.8815C112.726 33.8815 107.338 36.8123 103.414 42.6737C101.382 45.6045 100.271 48.8897 100.082 52.5295L133.194 39.1285Z" fill="white"/>
<path d="M10.7122 27.708C3.62151 34.9363 0.0509547 43.4929 0.000511619 53.3776L0.000303693 53.4259C0.000180551 53.4449 5.74412e-05 53.464 0.000107241 53.483L-3.05176e-05 53.5903C-3.05176e-05 60.5793 1.88071 67.0737 5.64218 73.0735C5.77923 73.2927 5.91879 73.5111 6.06083 73.7289L6.13275 73.837L6.20178 73.9416C10.2424 80.1817 15.622 84.7199 22.3406 87.5564C26.851 89.4946 31.5024 90.4637 36.2947 90.4637C36.3886 90.4637 36.4826 90.4633 36.5767 90.4625C36.6707 90.4633 36.7646 90.4637 36.8585 90.4637C37.1201 90.4637 37.3787 90.4546 37.6346 90.4368C39.6 90.3581 41.5964 90.1071 43.6241 89.6837C50.9535 88.2655 57.2493 84.909 62.5114 79.6144C69.4798 72.603 73.1532 63.2711 73.1532 53.3776V29.6048C70.3541 29.2744 67.4997 29.9154 64.7523 30.3843C61.6513 30.7368 60.0771 31.6106 58.4656 32.6286C56.9382 33.5933 55.7472 34.8293 53.8866 36.81L55.3577 38.1738C56.7814 39.4036 56.9462 41.7595 55.5968 43.1401L54.2023 44.6479C57.8504 51.7017 56.9867 60.5773 51.318 66.8632C48.959 69.4811 46.0638 71.3107 42.9555 72.3438C40.9305 73.0781 38.8512 73.4452 36.7175 73.4452C35.402 73.4452 34.0395 73.3034 32.63 73.0197C28.1196 72.0743 24.3374 69.7578 21.2835 66.0705C18.3705 62.3832 16.914 58.2231 16.914 53.5903C16.914 48.884 18.401 44.7366 21.3749 41.1479C21.6127 40.8541 21.8602 40.5656 22.1176 40.2827C22.9655 39.3425 23.8827 38.5044 24.8544 37.7687C28.2276 35.1577 32.1585 33.8133 36.647 33.7354C39.2915 33.7763 41.7334 34.2648 43.9727 35.2007L45.3494 33.7122C46.5719 32.286 48.919 32.1256 50.2974 33.4827L51.5449 34.6392C53.3717 32.6942 54.8371 31.1381 56.7728 29.9154C58.6327 28.7406 60.6651 27.625 64.3949 27.201C67.3831 26.6512 70.1949 26.0213 73.1532 26.3996V8.97296C73.1532 6.65655 72.331 4.67106 70.6865 3.01648C69.0421 1.31463 67.0453 0.463707 64.6962 0.463707C62.394 0.463707 60.4207 1.31463 58.7762 3.01648C57.0848 4.67106 56.2391 6.65655 56.2391 8.97296V22.4728C50.6184 18.7697 44.1582 16.851 36.8585 16.7169H36.3651C26.4047 16.8587 17.8537 20.5224 10.7122 27.708Z" fill="white"/>
<path d="M75.1115 20.2865L77.3326 9.2644C77.4226 9.10024 77.5508 8.98272 77.6962 8.93116C77.8417 8.8796 77.9956 8.89707 78.1328 8.98069C78.2699 9.06431 78.3822 9.2091 78.451 9.39128C78.5199 9.57347 78.5413 9.78221 78.5117 9.98318L77.9009 20.2865L81.847 18.0064C81.9743 17.8906 82.7338 17.4969 82.8861 17.5174C83.0383 17.538 83.1807 17.6299 83.2889 17.7776C83.3971 17.9252 83.4645 18.1195 83.4795 18.3272C83.4946 18.535 83.4565 18.7435 83.3716 18.9172L78.932 24.4937L86.8743 26.1195C86.8743 26.1195 89.5221 26.6501 89.6512 26.7447C89.7803 26.8393 89.8827 26.9896 89.9425 27.1722C89.9919 27.3232 90.0098 27.4893 89.9949 27.6521C90.0098 27.815 89.9919 27.981 89.9425 28.1321C89.8827 28.3146 89.7803 28.465 89.6512 28.5596C89.5221 28.6542 86.8743 29.1847 86.8743 29.1847L78.932 30.8106L83.3716 36.3871C83.4565 36.5608 83.4946 36.7693 83.4795 36.977C83.4645 37.1848 83.3971 37.379 83.2889 37.5267C83.1807 37.6743 83.0383 37.7662 82.8861 37.7868C82.7338 37.8074 81.9743 37.4136 81.847 37.2978L77.9009 35.0177L78.5117 45.3211C78.5413 45.522 78.5199 45.7308 78.451 45.913C78.3822 46.0952 78.2699 46.2399 78.1328 46.3236C77.9956 46.4072 77.8417 46.4247 77.6962 46.3731C77.5508 46.3215 77.4226 46.204 77.3326 46.0399L75.1115 35.0177V20.2865Z" fill="white"/>
</svg>
