<svg width="524" height="85" viewBox="0 0 524 85" fill="none" xmlns="http://www.w3.org/2000/svg">
<path d="M478.604 63.7891C479.313 64.4531 480.065 65.0286 480.862 65.5156C483.696 67.4635 486.905 68.526 490.491 68.7031H491.089C494.409 68.7031 497.508 67.9062 500.386 66.3125C502.422 65.1172 504.614 62.9922 506.96 59.9375C508.155 58.0781 509.815 56.8828 511.94 56.3516C512.56 56.1745 513.18 56.0859 513.8 56.0859C515.305 56.0859 516.7 56.4844 517.983 57.2812C519.843 58.4323 521.016 60.0703 521.503 62.1953C521.636 62.9036 521.702 63.5677 521.702 64.1875C521.702 65.6484 521.304 67.0208 520.507 68.3047C516.213 73.9714 512.118 77.9115 508.222 80.125C503.042 83.0469 497.508 84.5078 491.62 84.5078C489.938 84.5078 488.256 84.4193 486.573 84.2422C478.826 83.1797 472.229 79.9258 466.784 74.4805C463.774 71.4701 461.383 67.9948 459.612 64.0547C459.479 63.7448 459.347 63.4349 459.214 63.125C459.081 62.7708 458.948 62.4167 458.815 62.0625C457.399 58.0339 456.69 54.0273 456.69 50.043C456.69 45.5273 457.598 41.0781 459.413 36.6953C462.069 30.3203 466.319 25.2513 472.163 21.4883C477.785 17.9023 484.138 15.9323 491.222 15.5781H492.417C498.659 15.5781 504.569 17.5039 510.147 21.3555C515.726 25.207 519.976 30.276 522.897 36.5625C522.942 36.7396 523.03 36.9167 523.163 37.0938C523.163 37.1823 523.185 37.2487 523.229 37.293V37.4258L523.296 37.4922V37.6914C523.34 37.7357 523.362 37.7799 523.362 37.8242V37.8906C523.451 37.9792 523.495 38.0456 523.495 38.0898V38.2227C523.539 38.2669 523.562 38.3555 523.562 38.4883V38.6211H523.628V39.0195C523.672 39.1966 523.694 39.3294 523.694 39.418V41.0117C523.65 41.056 523.628 41.1224 523.628 41.2109V41.6094C523.584 41.7422 523.539 41.8971 523.495 42.0742V42.1406C523.495 42.1849 523.451 42.2292 523.362 42.2734V42.4727C523.318 42.5169 523.296 42.5833 523.296 42.6719L523.229 42.8711C523.229 42.9154 523.207 42.9596 523.163 43.0039C523.163 43.0482 523.141 43.1146 523.097 43.2031L522.964 43.3359V43.4023L522.897 43.6016L522.765 43.8672L522.698 44.0664C522.698 44.1107 522.654 44.1549 522.565 44.1992C522.565 44.2435 522.543 44.3099 522.499 44.3984C522.455 44.4427 522.41 44.487 522.366 44.5312L522.3 44.6641L522.101 44.8633L522.034 44.9961L521.901 45.1953C521.901 45.2396 521.857 45.2839 521.769 45.3281C521.68 45.4167 521.614 45.5052 521.569 45.5938L521.37 45.7266C521.326 45.7708 521.282 45.8151 521.237 45.8594L521.171 45.9922L521.104 46.0586L520.972 46.125C520.927 46.1693 520.883 46.2135 520.839 46.2578L520.706 46.3906C520.618 46.4349 520.551 46.4792 520.507 46.5234C520.418 46.5677 520.308 46.6562 520.175 46.7891L520.042 46.8555C519.998 46.8997 519.953 46.9219 519.909 46.9219C519.821 46.9661 519.732 46.9883 519.644 46.9883V47.0547L519.511 47.1875C519.422 47.1875 519.356 47.2096 519.312 47.2539C519.267 47.2982 519.223 47.3203 519.179 47.3203C519.134 47.3646 519.046 47.3867 518.913 47.3867C518.869 47.431 518.825 47.4531 518.78 47.4531L478.604 63.7891ZM503.706 36.4297C500.828 33.7734 497.552 32.2018 493.878 31.7148C492.904 31.582 491.93 31.5156 490.956 31.5156C484.537 31.5156 479.49 34.2604 475.815 39.75C473.912 42.4948 472.871 45.5716 472.694 48.9805L503.706 36.4297Z" fill="black"/>
<path d="M448.722 84.5076C441.638 84.5076 435.042 82.449 428.933 78.3318C422.336 73.9933 418.418 68.4815 417.179 61.7966L416.183 44.863L416.249 37.2592H414.921C412.752 37.2592 410.892 36.5066 409.343 35.0014C407.749 33.4519 406.952 31.5482 406.952 29.2904C406.952 27.1212 407.749 25.2618 409.343 23.7123C410.892 22.1185 412.752 21.3217 414.921 21.3217H416.249V8.18671C416.249 6.01744 417.024 4.13593 418.573 2.54218C420.123 0.992699 422.004 0.217959 424.218 0.217959C426.431 0.217959 428.291 1.01483 429.796 2.60858C431.39 4.15806 432.187 6.01744 432.187 8.18671L432.12 21.3217C432.12 21.3217 440.908 21.3217 443.077 21.3217C445.246 21.3217 447.106 22.1185 448.655 23.7123C450.249 25.2618 451.046 27.1212 451.046 29.2904C451.046 31.5482 450.249 33.4519 448.655 35.0014C447.106 36.5066 445.246 37.2592 443.077 37.2592H432.12L432.12 44.863C432.12 45.35 432.098 46.9437 432.054 49.6442C432.009 50.6625 431.987 51.57 431.987 52.3669C431.987 53.208 432.009 53.9606 432.054 54.6247C432.364 58.4762 433.581 61.3539 435.706 63.2575C439.469 66.7992 443.808 68.5701 448.722 68.5701C450.935 68.5701 452.817 69.3227 454.366 70.8279C455.916 72.4217 456.69 74.3253 456.69 76.5389C456.69 78.7524 455.916 80.6339 454.366 82.1834C452.817 83.7329 450.935 84.5076 448.722 84.5076Z" fill="black"/>
<path d="M372.487 31.3827C367.44 31.4712 363.08 33.3085 359.405 36.8944C355.731 40.5689 353.894 44.9296 353.894 49.9764C353.894 54.315 355.31 58.2108 358.144 61.6639C360.933 65.117 364.452 67.2863 368.702 68.1717C370.03 68.4374 371.314 68.5702 372.554 68.5702C376.095 68.5702 379.46 67.5298 382.647 65.4491C387.03 62.6157 389.687 58.6978 390.616 53.6952C390.882 52.3228 391.015 50.9947 391.015 49.7108C391.015 45.5936 389.62 41.8085 386.831 38.3553C383.024 33.7955 378.243 31.4712 372.487 31.3827ZM372.687 15.4452C382.028 15.578 390.085 19.009 396.858 25.7382C403.588 32.5559 406.952 40.6353 406.952 49.9764V76.5389C406.952 78.7525 406.177 80.634 404.628 82.1834C403.034 83.7329 401.153 84.5077 398.983 84.5077C395.043 84.5077 392.498 82.604 391.347 78.7967C387.672 81.2759 383.688 82.9361 379.394 83.7772C377.003 84.2642 374.634 84.5077 372.288 84.5077C365.78 84.5077 359.538 82.5598 353.562 78.6639C345.504 73.3957 340.546 66.1353 338.687 56.8827C338.2 54.5806 337.956 52.2785 337.956 49.9764C337.956 44.4869 339.284 39.1965 341.94 34.1053C345.703 26.8007 351.304 21.5546 358.741 18.3671C363.124 16.5077 367.706 15.5337 372.487 15.4452H372.687Z" fill="black"/>
<path d="M266.716 23.4139C266.716 21.2447 267.512 19.3853 269.106 17.8358C270.656 16.2421 272.515 15.4452 274.684 15.4452C278.669 15.4452 281.214 17.3488 282.321 21.1561C288.032 17.4817 294.341 15.6223 301.247 15.578C308.197 15.578 314.528 17.4595 320.239 21.2225C327.588 26.0481 332.458 33.0871 334.848 42.3397C335.424 44.509 335.712 47.0546 335.712 49.9764V76.5389C335.712 78.7525 334.937 80.634 333.387 82.1834C331.882 83.7329 330.001 84.5077 327.743 84.5077C325.574 84.5077 323.714 83.7329 322.165 82.1834C320.571 80.634 319.774 78.7525 319.774 76.5389V49.9764C319.774 46.2577 318.734 42.8267 316.653 39.6835C314.528 36.496 311.783 34.216 308.419 32.8436C306.072 31.8697 303.726 31.3827 301.38 31.3827C299.166 31.3827 296.93 31.8254 294.673 32.7108C290.068 34.4374 286.704 37.4921 284.579 41.8749C283.384 44.2655 282.742 46.966 282.653 49.9764V76.5389C282.653 78.7525 281.878 80.634 280.329 82.1834C278.779 83.7329 276.898 84.5077 274.684 84.5077C272.515 84.5077 270.656 83.7329 269.106 82.1834C267.512 80.634 266.716 78.7525 266.716 76.5389V23.4139Z" fill="black"/>
<path d="M230.265 15.4452C239.961 15.6223 248.084 19.1197 254.636 25.9374C261.144 32.4895 264.398 40.5025 264.398 49.9764V50.2421C264.354 59.716 261.034 67.7512 254.437 74.3475C249.479 79.3058 243.547 82.4491 236.64 83.7772C234.294 84.2642 231.992 84.5077 229.734 84.5077C225.218 84.5077 220.836 83.6001 216.586 81.785C210.255 79.1288 205.186 74.8788 201.379 69.035C197.483 63.1913 195.535 56.8384 195.535 49.9764C195.535 40.6353 198.899 32.5559 205.629 25.7382C212.358 19.009 220.415 15.578 229.8 15.4452H230.265ZM230.066 31.3827C224.931 31.4712 220.57 33.3085 216.984 36.8944C213.31 40.5689 211.472 44.9296 211.472 49.9764C211.472 54.315 212.845 58.2108 215.59 61.6639C218.467 65.117 222.031 67.2863 226.281 68.1717C227.609 68.4374 228.893 68.5702 230.133 68.5702C233.63 68.5702 236.972 67.5298 240.16 65.4491C244.498 62.6157 247.177 58.6978 248.195 53.6952C248.461 52.3671 248.593 51.0832 248.593 49.8436C248.593 45.6822 247.155 41.8527 244.277 38.3553C240.558 33.7955 235.821 31.4712 230.066 31.3827Z" fill="black"/>
<path d="M187.566 84.5076C180.483 84.5076 173.886 82.449 167.777 78.3318C161.181 73.9933 157.263 68.4816 156.023 61.7967L155.027 44.8631L155.094 37.2633H153.766C151.596 37.2633 149.737 36.5107 148.187 35.0054C146.594 33.456 145.797 31.5523 145.797 29.2945C145.797 27.1252 146.594 25.2659 148.187 23.7164C149.737 22.1226 151.596 21.3258 153.766 21.3258H155.094V8.1908C155.094 6.02153 155.868 4.14001 157.418 2.54626C158.967 0.996786 160.849 0.222046 163.062 0.222046C165.276 0.222046 167.135 1.01892 168.641 2.61267C170.234 4.16215 171.031 6.02153 171.031 8.1908L170.965 21.3258C170.965 21.3258 179.752 21.3258 181.922 21.3258C184.091 21.3258 185.95 22.1226 187.5 23.7164C189.094 25.2659 189.891 27.1252 189.891 29.2945C189.891 31.5523 189.094 33.456 187.5 35.0054C185.95 36.5107 184.091 37.2633 181.922 37.2633H170.965L170.965 44.8631C170.965 45.3501 170.942 46.9439 170.898 49.6444C170.854 50.6626 170.832 51.5702 170.832 52.367C170.832 53.2082 170.854 53.9608 170.898 54.6248C171.208 58.4764 172.426 61.354 174.551 63.2576C178.314 66.7993 182.652 68.5701 187.566 68.5701C189.78 68.5701 191.661 69.3227 193.211 70.8279C194.76 72.4217 195.535 74.3253 195.535 76.5389C195.535 78.7524 194.76 80.6339 193.211 82.1834C191.661 83.7329 189.78 84.5076 187.566 84.5076Z" fill="black"/>
<path d="M100.707 63.7891C101.415 64.4531 102.168 65.0286 102.965 65.5156C105.798 67.4635 109.008 68.526 112.594 68.7031H113.191C116.512 68.7031 119.611 67.9062 122.488 66.3125C124.525 65.1172 126.716 62.9922 129.062 59.9375C130.258 58.0781 131.918 56.8828 134.043 56.3516C134.663 56.1745 135.282 56.0859 135.902 56.0859C137.407 56.0859 138.802 56.4844 140.086 57.2812C141.945 58.4323 143.118 60.0703 143.605 62.1953C143.738 62.9036 143.805 63.5677 143.805 64.1875C143.805 65.6484 143.406 67.0208 142.609 68.3047C138.315 73.9714 134.22 77.9115 130.324 80.125C125.144 83.0469 119.611 84.5078 113.723 84.5078C112.04 84.5078 110.358 84.4193 108.676 84.2422C100.928 83.1797 94.3319 79.9258 88.8866 74.4805C85.8762 71.4701 83.4856 67.9948 81.7147 64.0547C81.5819 63.7448 81.4491 63.4349 81.3163 63.125C81.1835 62.7708 81.0507 62.4167 80.9178 62.0625C79.5012 58.0339 78.7928 54.0273 78.7928 50.043C78.7928 45.5273 79.7004 41.0781 81.5155 36.6953C84.1718 30.3203 88.4218 25.2513 94.2655 21.4883C99.8879 17.9023 106.241 15.9323 113.324 15.5781H114.519C120.762 15.5781 126.672 17.5039 132.25 21.3555C137.828 25.207 142.078 30.276 145 36.5625C145.044 36.7396 145.133 36.9167 145.266 37.0938C145.266 37.1823 145.288 37.2487 145.332 37.293V37.4258L145.398 37.4922V37.6914C145.443 37.7357 145.465 37.7799 145.465 37.8242V37.8906C145.553 37.9792 145.598 38.0456 145.598 38.0898V38.2227C145.642 38.2669 145.664 38.3555 145.664 38.4883V38.6211H145.73V39.0195C145.775 39.1966 145.797 39.3294 145.797 39.418V41.0117C145.752 41.056 145.73 41.1224 145.73 41.2109V41.6094C145.686 41.7422 145.642 41.8971 145.598 42.0742V42.1406C145.598 42.1849 145.553 42.2292 145.465 42.2734V42.4727C145.42 42.5169 145.398 42.5833 145.398 42.6719L145.332 42.8711C145.332 42.9154 145.31 42.9596 145.266 43.0039C145.266 43.0482 145.243 43.1146 145.199 43.2031L145.066 43.3359V43.4023L145 43.6016L144.867 43.8672L144.801 44.0664C144.801 44.1107 144.756 44.1549 144.668 44.1992C144.668 44.2435 144.646 44.3099 144.601 44.3984C144.557 44.4427 144.513 44.487 144.469 44.5312L144.402 44.6641L144.203 44.8633L144.137 44.9961L144.004 45.1953C144.004 45.2396 143.96 45.2839 143.871 45.3281C143.782 45.4167 143.716 45.5052 143.672 45.5938L143.473 45.7266C143.428 45.7708 143.384 45.8151 143.34 45.8594L143.273 45.9922L143.207 46.0586L143.074 46.125C143.03 46.1693 142.986 46.2135 142.941 46.2578L142.808 46.3906C142.72 46.4349 142.654 46.4792 142.609 46.5234C142.521 46.5677 142.41 46.6562 142.277 46.7891L142.144 46.8555C142.1 46.8997 142.056 46.9219 142.012 46.9219C141.923 46.9661 141.835 46.9883 141.746 46.9883V47.0547L141.613 47.1875C141.525 47.1875 141.458 47.2096 141.414 47.2539C141.37 47.2982 141.325 47.3203 141.281 47.3203C141.237 47.3646 141.148 47.3867 141.016 47.3867C140.971 47.431 140.927 47.4531 140.883 47.4531L100.707 63.7891ZM125.808 36.4297C122.931 33.7734 119.655 32.2018 115.98 31.7148C115.006 31.582 114.032 31.5156 113.058 31.5156C106.639 31.5156 101.592 34.2604 97.9178 39.75C96.0142 42.4948 94.9738 45.5716 94.7968 48.9805L125.808 36.4297Z" fill="black"/>
<path d="M10.628 25.7384C3.94669 32.5076 0.582282 40.5206 0.534752 49.7775L0.534556 49.8227C0.53444 49.8405 0.534324 49.8583 0.534371 49.8762L0.534241 49.9767C0.534241 56.5217 2.3064 62.6036 5.8507 68.2223C5.97984 68.4276 6.11133 68.6322 6.24518 68.836L6.31294 68.9373L6.37799 69.0352C10.1853 74.879 15.2543 79.129 21.585 81.7852C25.835 83.6003 30.2178 84.5079 34.7335 84.5079C34.822 84.5079 34.9106 84.5075 34.9992 84.5068C35.0878 84.5075 35.1762 84.5079 35.2647 84.5079C35.5112 84.5079 35.7549 84.4994 35.996 84.4827C37.8479 84.409 39.7291 84.174 41.6397 83.7774C48.546 82.4493 54.4782 79.3061 59.4366 74.3477C66.0026 67.7817 69.4639 59.0426 69.4639 49.7774V29.3276C66.8264 29.0182 64.2329 27.9413 61.5481 28.2447C58.6261 28.5748 57.1428 29.3931 55.6244 30.3464C54.1852 31.2499 53.0628 32.4074 51.3097 34.2622L52.6959 35.5394C54.0374 36.6911 54.1926 38.8973 52.9212 40.1902L51.6071 41.6023C55.0447 48.2081 54.2308 56.5199 48.8894 62.4065C46.6666 64.8581 43.9385 66.5715 41.0098 67.539C39.1017 68.2266 37.1424 68.5704 35.1319 68.5704C33.8923 68.5704 32.6085 68.4376 31.2803 68.172C27.0303 67.2865 23.4665 65.1173 20.5889 61.6641C17.8441 58.211 16.4717 54.3152 16.4717 49.9767C16.4717 45.5693 17.8728 41.6853 20.675 38.3246C20.8991 38.0495 21.1324 37.7792 21.3749 37.5143C22.1738 36.6339 23.0381 35.849 23.9537 35.16C27.1322 32.7149 30.8361 31.4558 35.0655 31.3829C37.5573 31.4213 39.8582 31.8787 41.9682 32.7552L43.2654 31.3612C44.4173 30.0256 46.6289 29.8754 47.9278 31.1463L49.1032 32.2293C50.8245 30.4078 52.2053 28.9506 54.0293 27.8056C55.7818 26.7054 57.6968 25.6607 61.2113 25.2636C64.1121 24.9359 66.6764 25.9717 69.4639 26.326V8.19337C69.4639 6.0241 68.6892 4.16472 67.1397 2.61524C65.5902 1.02149 63.7087 0.224617 61.4952 0.224617C59.3259 0.224617 57.4665 1.02149 55.9171 2.61524C54.3233 4.16472 53.5264 6.0241 53.5264 8.19337V20.8357C48.2302 17.3678 42.143 15.571 35.2647 15.4454H34.7999C25.4144 15.5782 17.3572 19.0092 10.628 25.7384Z" fill="black"/>
<path d="M74.1966 40.0629L71.239 34.6294V22.6561V18.7027L79.5834 9.83759C79.7118 9.78022 79.8504 9.77926 79.9792 9.83483C80.108 9.8904 80.2201 9.9996 80.2993 10.1465C80.3785 10.2934 80.4206 10.4704 80.4194 10.6516C80.4182 10.8327 80.3738 11.0087 80.2928 11.1537L79.5834 14.9066H83.4896C83.6283 14.8756 83.7707 14.9071 83.8946 14.9961C84.0184 15.0852 84.1167 15.2268 84.174 15.3987C84.2313 15.5706 84.2444 15.7631 84.2112 15.9461C84.178 16.129 84.1004 16.292 83.9906 16.4096L78.2615 22.5475L85.3987 22.158C86.0124 22.158 86.2958 22.4732 86.329 22.6561C86.3622 22.839 86.3491 23.0315 86.2918 23.2034C86.2345 23.3753 86.1363 23.5168 86.0124 23.6059C85.8886 23.695 85.5373 24.0101 85.3987 23.9792L77.3166 28.8108L78.158 32.0386C78.2394 32.2022 78.276 32.3984 78.2615 32.5941C78.2471 32.7897 78.1824 32.9725 78.0787 33.1115C77.9749 33.2505 77.8383 33.3371 77.6923 33.3564C77.5462 33.3758 77.3996 33.3268 77.2775 33.2178L74.3578 32.8961L75.3275 39.3862C75.3559 39.5754 75.3354 39.7719 75.2693 39.9434C75.2033 40.1149 75.0956 40.2512 74.9641 40.33C74.8325 40.4087 74.6848 40.4251 74.5453 40.3766C74.4059 40.3281 74.2829 40.2174 74.1966 40.0629Z" fill="black"/>
</svg>
