<svg width="24" height="24" viewBox="0 0 24 24" fill="none" xmlns="http://www.w3.org/2000/svg">
<path d="M0.587298 14.2589C0.600277 11.7328 1.51898 9.54613 3.34342 7.69888C5.18093 5.86257 7.3811 4.92629 9.94394 4.89004H10.0709C11.9491 4.92433 13.6113 5.41464 15.0575 6.36099V2.91104C15.0575 2.31907 15.2751 1.81166 15.7103 1.38883C16.1334 0.953909 16.6412 0.73645 17.2335 0.73645C17.838 0.73645 18.3517 0.953909 18.7749 1.38883C19.198 1.81166 19.4095 2.31907 19.4095 2.91104V6.88163C17.9635 6.9224 17.0487 7.1709 16.2967 7.64689C15.8917 7.9032 15.5516 8.21455 15.2131 8.55752C15.0671 8.70548 14.9178 8.86308 14.7636 9.02583L14.7635 9.02593C14.7395 9.05127 14.7154 9.07674 14.6912 9.10231C14.5159 9.28714 14.3315 9.48051 14.1285 9.68404C13.7196 9.27301 13.3589 8.92593 13.2847 8.88637C13.2254 8.85458 13.1105 8.83092 13.0314 8.83092C12.9009 8.83112 12.8455 8.87067 12.4655 9.23981L12.046 9.6487L11.6106 9.50194C11.0327 9.30748 10.6566 9.24796 9.98787 9.25183C8.55909 9.2559 7.29638 9.80749 6.3347 10.8354C5.64969 11.5735 5.19051 12.4906 5.0165 13.4749C4.93337 13.9392 4.95309 14.8442 5.05614 15.3284C5.47182 17.3129 6.94411 18.8172 8.91116 19.2815C9.41385 19.3967 10.5814 19.4046 11.0565 19.2934C12.6595 18.9203 13.8864 17.9519 14.583 16.519C14.9194 15.8284 15.0737 15.1298 15.0737 14.3082C15.0737 13.7089 14.9985 13.2405 14.8164 12.7007L14.6859 12.3039L15.0778 11.907C15.4815 11.4942 15.5487 11.3752 15.4894 11.1449C15.4783 11.0957 15.1543 10.7415 14.757 10.3274C14.9712 10.1127 15.1644 9.91022 15.3425 9.72231C15.3673 9.69618 15.3917 9.67039 15.4159 9.64492C15.5706 9.48153 15.7129 9.33137 15.8519 9.19047C16.1725 8.86569 16.4567 8.61038 16.7765 8.40794C17.3405 8.05098 18.0722 7.82253 19.4095 7.78221V14.2589C19.4095 16.7872 18.4644 19.172 16.6714 20.9638C15.3174 22.3169 13.6975 23.1747 11.8117 23.5371C11.2899 23.6453 10.7763 23.7095 10.2706 23.7296C10.2047 23.7341 10.1382 23.7365 10.0709 23.7365C10.0467 23.7365 10.0226 23.7363 9.99838 23.7361C9.97417 23.7363 9.94997 23.7364 9.9258 23.7364C8.69274 23.7364 7.49594 23.4888 6.33541 22.9935C4.6067 22.2686 3.22253 21.1088 2.18289 19.5141L2.16513 19.4874L2.14662 19.4598C2.11007 19.4041 2.07417 19.3483 2.0389 19.2923C1.07107 17.759 0.587158 16.0993 0.587158 14.3132L0.587194 14.2858C0.587181 14.281 0.587212 14.2761 0.587244 14.2712L0.587298 14.2589Z" fill="#E10075"/>
<path d="M19.8513 5.57537V6.41848C19.965 6.4185 20.0776 6.44197 20.1827 6.48756C20.2878 6.53316 20.3833 6.60001 20.4637 6.68427C20.5441 6.76854 20.6079 6.86857 20.6515 6.97867C20.695 7.08877 20.7174 7.20677 20.7174 7.32594C20.7174 7.44511 20.695 7.56311 20.6515 7.67321C20.6079 7.7833 20.5441 7.88334 20.4637 7.96761C20.3833 8.05187 20.2878 8.11871 20.1827 8.16432C20.0776 8.20991 19.965 8.23338 19.8513 8.23339V9.02322L20.4078 11.603C20.4303 11.6414 20.4624 11.6689 20.4989 11.681C20.5353 11.693 20.5739 11.6889 20.6082 11.6694C20.6426 11.6498 20.6707 11.6159 20.688 11.5733C20.7052 11.5306 20.7106 11.4818 20.7032 11.4347L20.5501 9.02322L21.5387 9.55688C21.5706 9.58399 21.7609 9.67615 21.799 9.67133C21.8372 9.66651 21.8729 9.645 21.9 9.61044C21.9271 9.57589 21.9439 9.53043 21.9477 9.4818C21.9515 9.43317 21.9419 9.38437 21.9207 9.34371L20.8084 8.03854L22.7982 7.658C22.7982 7.658 23.4615 7.53383 23.4939 7.51169C23.5262 7.48955 23.5519 7.45436 23.5668 7.41162C23.5792 7.37627 23.5872 7.33797 23.5872 7.2993C23.5872 7.26063 23.5792 7.22232 23.5668 7.18697C23.5519 7.14424 23.5262 7.10904 23.4939 7.0869C23.4615 7.06477 22.7982 6.94059 22.7982 6.94059L20.8084 6.56005L21.9207 5.25488C21.9419 5.21422 21.9515 5.16542 21.9477 5.1168C21.9439 5.06817 21.9271 5.02271 21.9 4.98815C21.8729 4.9536 21.8372 4.93208 21.799 4.92726C21.7609 4.92245 21.5706 5.0146 21.5387 5.04171L20.5501 5.57537L20.7032 3.16386C20.7106 3.11683 20.7052 3.06797 20.688 3.02533C20.6707 2.98269 20.6426 2.9488 20.6082 2.92923C20.5739 2.90966 20.5353 2.90557 20.4989 2.91764C20.4624 2.92971 20.4303 2.95721 20.4078 2.99563L19.8513 5.57537Z" fill="#E10075"/>
</svg>
