<svg width="25" height="25" viewBox="0 0 25 25" fill="none" xmlns="http://www.w3.org/2000/svg">
<path d="M3.20394 7.67921C1.31309 9.60677 0.36094 11.8885 0.347488 14.5244L0.347433 14.5373C0.3474 14.5424 0.347367 14.5475 0.34738 14.5525L0.347343 14.5812C0.347343 16.4449 0.848875 18.1767 1.85193 19.7767C1.88848 19.8351 1.92569 19.8934 1.96357 19.9514L1.98275 19.9803L2.00116 20.0082C3.07865 21.6722 4.51321 22.8824 6.30484 23.6388C7.50762 24.1556 8.74798 24.4141 10.0259 24.4141C10.051 24.4141 10.0761 24.4139 10.1011 24.4137C10.1262 24.414 10.1512 24.4141 10.1763 24.4141C10.2461 24.4141 10.315 24.4116 10.3832 24.4069C10.9073 24.3859 11.4397 24.319 11.9804 24.2061C13.935 23.8279 15.6138 22.9328 17.0171 21.5209C18.8753 19.6512 19.8549 17.1627 19.8549 14.5244V8.18502C19.1084 8.09691 18.3473 8.26784 17.6146 8.39288C16.7877 8.48688 16.3679 8.71991 15.9382 8.99135C15.5309 9.24862 15.2133 9.57823 14.7171 10.1064L15.1094 10.4701C15.4891 10.798 15.533 11.4263 15.1732 11.7944L14.8013 12.1965C15.7741 14.0775 15.5438 16.4444 14.0321 18.1206C13.4031 18.8187 12.631 19.3066 11.8022 19.5821C11.2622 19.7779 10.7077 19.8758 10.1387 19.8758C9.78788 19.8758 9.42454 19.838 9.04867 19.7623C7.8459 19.5102 6.83732 18.8925 6.02294 17.9092C5.24615 16.9259 4.85775 15.8166 4.85775 14.5812C4.85775 13.3262 5.25427 12.2202 6.04731 11.2632C6.11073 11.1848 6.17675 11.1079 6.24538 11.0325C6.47147 10.7817 6.71608 10.5582 6.9752 10.3621C7.87471 9.66579 8.92295 9.30728 10.1199 9.28651C10.8251 9.29743 11.4763 9.42768 12.0734 9.67727L12.4405 9.28034C12.7665 8.90001 13.3924 8.85724 13.76 9.21913L14.0927 9.52752C14.5798 9.00886 14.9706 8.5939 15.4868 8.26784C15.9827 7.95456 16.5247 7.65708 17.5193 7.54402C18.3162 7.3974 19.066 7.22943 19.8549 7.33031V2.6832C19.8549 2.06549 19.6356 1.53602 19.1971 1.0948C18.7586 0.640976 18.2261 0.414062 17.5997 0.414062C16.9857 0.414062 16.4595 0.640976 16.021 1.0948C15.57 1.53602 15.3445 2.06549 15.3445 2.6832V6.28315C13.8456 5.29565 12.1229 4.78402 10.1763 4.74825H10.0447C7.38859 4.78606 5.10833 5.76305 3.20394 7.67921Z" fill="#F50057"/>
<path d="M20.3771 5.70015L20.9694 2.76091C20.9934 2.71714 21.0276 2.6858 21.0664 2.67205C21.1051 2.6583 21.1462 2.66296 21.1828 2.68526C21.2193 2.70756 21.2493 2.74617 21.2676 2.79475C21.286 2.84333 21.2917 2.899 21.2838 2.95259L21.1209 5.70015L22.1732 5.09212C22.2072 5.06124 22.4097 4.95623 22.4503 4.96172C22.4909 4.96721 22.5289 4.99173 22.5577 5.0311C22.5866 5.07047 22.6045 5.12226 22.6086 5.17767C22.6126 5.23307 22.6024 5.28867 22.5798 5.33499L21.3959 6.82205L23.5138 7.25562C23.5138 7.25562 24.2199 7.39709 24.2543 7.42232C24.2888 7.44754 24.3161 7.48764 24.332 7.53633C24.3452 7.57661 24.35 7.62088 24.346 7.66431C24.35 7.70774 24.3452 7.75201 24.332 7.79229C24.3161 7.84098 24.2888 7.88107 24.2543 7.9063C24.2199 7.93152 23.5138 8.073 23.5138 8.073L21.3959 8.50657L22.5798 9.99362C22.6024 10.0399 22.6126 10.0955 22.6086 10.1509C22.6045 10.2064 22.5866 10.2581 22.5577 10.2975C22.5289 10.3369 22.4909 10.3614 22.4503 10.3669C22.4097 10.3724 22.2072 10.2674 22.1732 10.2365L21.1209 9.62846L21.2838 12.376C21.2917 12.4296 21.286 12.4853 21.2676 12.5339C21.2493 12.5824 21.2193 12.6211 21.1828 12.6434C21.1462 12.6657 21.1051 12.6703 21.0664 12.6566C21.0276 12.6428 20.9934 12.6115 20.9694 12.5677L20.3771 9.62846V5.70015Z" fill="#F50057"/>
</svg>
