<svg width="154" height="213" viewBox="0 0 154 213" fill="none" xmlns="http://www.w3.org/2000/svg">
<path d="M89.941 107L76.691 120.912L67.1508 114.022C66.5669 113.619 65.8492 113.458 65.1488 113.573C64.4485 113.689 63.8203 114.071 63.3967 114.641C62.9956 115.218 62.8358 115.928 62.9513 116.622C63.0668 117.315 63.4485 117.935 64.015 118.351L75.454 126.61C75.896 126.954 76.44 127.14 77 127.14C77.733 127.127 78.431 126.826 78.943 126.301L93.827 110.71C94.258 110.185 94.475 109.516 94.434 108.838C94.392 108.159 94.096 107.522 93.605 107.053C93.113 106.583 92.462 106.317 91.783 106.307C91.104 106.298 90.446 106.545 89.941 107Z" fill="white"/>
<path d="M148.373 35.8917H142.146C142.398 27.1388 139.673 18.5594 134.417 11.5558C131.261 7.96226 127.322 5.14159 122.903 3.31141C118.485 1.48122 113.705 0.690412 108.932 0.999991C104.14 0.683156 99.338 1.47001 94.897 3.30001C90.456 5.13001 86.494 7.95438 83.316 11.5558C81.975 13.1899 80.82 14.9674 79.871 16.8558C78.922 14.9571 77.751 13.1779 76.382 11.5558C73.217 7.94996 69.2632 5.12195 64.8282 3.2913C60.3933 1.46065 55.5962 0.67659 50.8092 0.999991C46.0164 0.683156 41.2147 1.47001 36.7737 3.30001C32.3327 5.13001 28.3707 7.95438 25.1925 11.5558C20.0052 18.5898 17.3159 27.155 17.5517 35.8917H5.62671C4.32901 35.9022 3.0855 36.4134 2.1557 37.3186C1.2258 38.2238 0.681303 39.4531 0.635803 40.75V110.401H34.5117C36.6399 103.889 40.2538 97.9619 45.0675 93.0875V40.75C45.022 39.4531 44.4775 38.2238 43.5477 37.3186C42.6178 36.4134 41.3743 35.9022 40.0767 35.8917H26.8267C26.6022 29.2797 28.5576 22.7773 32.3917 17.3858C34.7267 14.8737 37.6016 12.9244 40.7996 11.685C43.9976 10.4456 47.4352 9.94836 50.8533 10.2308C54.2714 9.94836 57.7091 10.4456 60.9071 11.685C64.1051 12.9244 66.98 14.8737 69.315 17.3858C73.142 22.7766 75.068 29.2864 74.792 35.8917H59.775C58.5005 35.9356 57.2901 36.4616 56.3884 37.3634C55.4866 38.2651 54.9607 39.4755 54.9167 40.75V85.5792C61.6883 81.7306 69.3436 79.7072 77.132 79.7072C84.921 79.7072 92.577 81.7306 99.348 85.5792V40.75C99.302 39.4301 98.739 38.1811 97.781 37.2723C96.823 36.3635 95.546 35.8677 94.225 35.8917H84.906C84.681 29.2797 86.637 22.7773 90.471 17.3858C92.806 14.8737 95.681 12.9244 98.879 11.685C102.077 10.4456 105.514 9.94836 108.932 10.2308C112.351 9.94836 115.788 10.4456 118.986 11.685C122.184 12.9244 125.059 14.8737 127.394 17.3858C131.237 22.771 133.179 29.2814 132.915 35.8917H113.923C112.626 35.9022 111.382 36.4134 110.452 37.3186C109.522 38.2238 108.978 39.4531 108.932 40.75V93.0875C113.746 97.9619 117.36 103.889 119.488 110.401H153.364V40.75C153.319 39.4531 152.774 38.2238 151.844 37.3186C150.914 36.4134 149.671 35.9022 148.373 35.8917Z" fill="white"/>
<path d="M108.932 155.848V208.009C108.944 209.329 109.474 210.592 110.407 211.525C111.34 212.459 112.603 212.988 113.923 213H148.373C149.693 212.988 150.956 212.459 151.89 211.525C152.823 210.592 153.353 209.329 153.364 208.009V143.835H117.368C115.213 148.262 112.365 152.318 108.932 155.848Z" fill="white"/>
<path d="M54.9167 163.312V208.009C54.9273 209.307 55.4385 210.55 56.3436 211.48C57.2488 212.41 58.4781 212.955 59.775 213H94.225C95.522 212.955 96.751 212.41 97.656 211.48C98.562 210.55 99.073 209.307 99.083 208.009V163.312C92.322 167.191 84.662 169.231 76.868 169.231C69.0725 169.231 61.4134 167.191 54.6517 163.312H54.9167Z" fill="white"/>
<path d="M0.635803 143.835V208.009C0.647403 209.329 1.1769 210.592 2.1104 211.525C3.0438 212.459 4.30661 212.988 5.62671 213H40.0767C41.3967 212.988 42.6595 212.459 43.593 211.525C44.5265 210.592 45.056 209.329 45.0675 208.009V155.848C41.6256 152.325 38.7767 148.269 36.6317 143.835H0.635803Z" fill="white"/>
<path d="M77 83.2383C67.8924 83.2869 59.0564 86.345 51.8672 91.9366C44.678 97.5282 39.539 105.34 37.25 114.155H0.635803V140.655H38.9725C42.1046 148.158 47.3865 154.568 54.1532 159.076C60.92 163.584 68.8691 165.989 77 165.989C85.131 165.989 93.08 163.584 99.847 159.076C106.614 154.568 111.895 148.158 115.028 140.655H153.364V114.155H116.75C114.461 105.34 109.322 97.5282 102.133 91.9366C94.944 86.345 86.108 83.2869 77 83.2383ZM105.708 126.036C105.508 130.007 104.469 133.89 102.661 137.431L96.875 134.074L95.285 136.857L101.071 140.213C98.891 143.527 96.049 146.354 92.723 148.517L89.411 142.731L86.628 144.365L89.985 150.107C86.442 151.91 82.56 152.948 78.59 153.154V146.485H75.41V153.154C71.44 152.948 67.5577 151.91 64.015 150.107L67.3717 144.365L64.5892 142.731L61.2767 148.517C57.9512 146.354 55.1091 143.527 52.9292 140.213L58.715 136.857L57.125 134.074L51.3392 137.431C49.5308 133.89 48.4922 130.007 48.2917 126.036H54.9167V122.856H48.2917C48.4847 118.87 49.5235 114.97 51.3392 111.417L57.125 114.729L58.715 111.947L52.9292 108.634C55.1199 105.317 57.9594 102.477 61.2767 100.287L64.5892 106.072L67.3717 104.482L64.015 98.6967C67.5577 96.8933 71.44 95.855 75.41 95.6491V102.583H78.59V95.7375C82.56 95.9433 86.442 96.9816 89.985 98.785L86.628 104.571L89.411 106.161L92.723 100.375C96.041 102.566 98.88 105.405 101.071 108.722L95.285 112.035L96.875 114.817L102.661 111.417C104.464 114.944 105.503 118.812 105.708 122.767H99.083V125.947L105.708 126.036Z" fill="white"/>
</svg>
