<?xml version="1.0" encoding="utf-8"?>
<!-- Generator: Adobe Illustrator 21.1.0, SVG Export Plug-In . SVG Version: 6.00 Build 0)  -->
<svg version="1.2" baseProfile="tiny" id="Layer_1" xmlns="http://www.w3.org/2000/svg" xmlns:xlink="http://www.w3.org/1999/xlink"
	 x="0px" y="0px" viewBox="0 0 60 80" xml:space="preserve">
<title>a</title>
<g>
	<path fill="#FFFFFF" d="M52.5,20c4.1,0,7.5-3.4,7.5-7.5v-5C60,3.4,56.6,0,52.5,0h-45C3.4,0,0,3.4,0,7.5v5C0,16.6,3.4,20,7.5,20h15
		v15h-15C3.4,35,0,38.4,0,42.5v35C0,78.9,1.1,80,2.5,80h55c1.4,0,2.5-1.1,2.5-2.5v-35c0-4.1-3.4-7.5-7.5-7.5h-15V20H52.5z M5,12.5
		v-5C5,6.1,6.1,5,7.5,5v2.5C7.5,8.9,8.6,10,10,10s2.5-1.1,2.5-2.5V5h35v2.5c0,1.4,1.1,2.5,2.5,2.5s2.5-1.1,2.5-2.5V5
		C53.9,5,55,6.1,55,7.5v5c0,1.4-1.1,2.5-2.5,2.5h-45C6.1,15,5,13.9,5,12.5z M55,75H5v-2.5h50V75z M55,42.5v25H5v-25
		C5,41.1,6.1,40,7.5,40h45C53.9,40,55,41.1,55,42.5z M32.5,35h-5V20h5V35z"/>
	<path fill="#FFFFFF" d="M33.2,53.2L32.5,54v-6.5c0-1.4-1.1-2.5-2.5-2.5c-1.4,0-2.5,1.1-2.5,2.5V54l-0.7-0.7c-1-1-2.6-0.9-3.5,0.1
		c-0.9,1-0.9,2.5,0,3.5l5,5c0.1,0.1,0.2,0.2,0.4,0.3c0.1,0,0.1,0.1,0.2,0.1c0.1,0,0.2,0.1,0.2,0.1c0.1,0,0.2,0.1,0.2,0.1
		s0.1,0,0.2,0.1c0.3,0.1,0.7,0.1,1,0c0.1,0,0.1,0,0.2-0.1c0.1,0,0.2,0,0.2-0.1c0.1,0,0.2-0.1,0.2-0.1c0.1,0,0.1-0.1,0.2-0.1
		c0.1-0.1,0.3-0.2,0.4-0.3l5-5c1-1,0.9-2.6-0.1-3.5C35.7,52.3,34.2,52.3,33.2,53.2L33.2,53.2z"/>
</g>
</svg>
