<svg width="512" height="512" viewBox="0 0 512 512" fill="none" xmlns="http://www.w3.org/2000/svg">
<path d="M61.0457 155.514C20.7864 196.555 0.513543 245.137 0.227138 301.261L0.225958 301.535C0.225258 301.643 0.224559 301.751 0.224842 301.859L0.22406 302.468C0.22406 342.15 10.9025 379.024 32.2593 413.09C33.0374 414.334 33.8298 415.574 34.6363 416.81L35.0446 417.425L35.4366 418.018C58.3781 453.448 88.9222 479.215 127.069 495.32C152.678 506.325 179.088 511.827 206.297 511.827C206.831 511.827 207.365 511.825 207.899 511.82C208.432 511.825 208.965 511.827 209.498 511.827C210.984 511.827 212.452 511.775 213.905 511.674C225.064 511.228 236.399 509.802 247.912 507.398C289.527 499.346 325.273 480.289 355.15 450.227C394.715 410.418 415.572 357.434 415.572 301.26V166.284C399.679 164.408 383.473 168.047 367.873 170.709C350.266 172.711 341.329 177.673 332.179 183.452C323.507 188.93 316.744 195.948 306.18 207.193L314.533 214.937C322.616 221.919 323.552 235.295 315.891 243.134L307.973 251.695C328.686 291.745 323.782 342.139 291.596 377.829C278.202 392.693 261.764 403.081 244.116 408.947C232.619 413.115 220.813 415.2 208.698 415.2C201.229 415.2 193.493 414.395 185.49 412.784C159.881 407.416 138.407 394.264 121.067 373.328C104.528 352.392 96.2582 328.772 96.2582 302.468C96.2582 275.747 104.701 252.199 121.586 231.823C122.936 230.155 124.342 228.517 125.803 226.91C130.617 221.572 135.825 216.814 141.342 212.636C160.494 197.812 182.813 190.179 208.298 189.736C223.313 189.969 237.177 192.742 249.892 198.056L257.708 189.605C264.649 181.507 277.975 180.596 285.802 188.302L292.885 194.868C303.257 183.825 311.577 174.99 322.568 168.047C333.128 161.377 344.667 155.043 365.844 152.636C382.811 149.514 398.775 145.938 415.572 148.086V49.1408C415.572 35.9887 410.903 24.7155 401.567 15.3212C392.23 5.65851 380.893 0.827148 367.555 0.827148C354.483 0.827148 343.279 5.65851 333.943 15.3212C324.339 24.7155 319.538 35.9887 319.538 49.1408V125.79C287.624 104.764 250.945 93.8708 209.498 93.1091H206.697C150.144 93.9144 101.593 114.716 61.0457 155.514Z" fill="#F50057"/>
<path d="M426.69 113.377L439.302 50.7955C439.813 49.8634 440.541 49.1962 441.366 48.9035C442.192 48.6107 443.066 48.7099 443.845 49.1847C444.624 49.6594 445.261 50.4816 445.652 51.516C446.043 52.5503 446.164 53.7355 445.996 54.8766L442.528 113.377L464.933 100.431C465.656 99.7732 469.968 97.5375 470.833 97.6544C471.697 97.7712 472.506 98.2932 473.12 99.1315C473.734 99.9698 474.117 101.073 474.202 102.252C474.288 103.432 474.071 104.616 473.589 105.602L448.382 137.264L493.477 146.495C493.477 146.495 508.511 149.508 509.244 150.045C509.977 150.582 510.558 151.435 510.898 152.472C511.178 153.33 511.28 154.272 511.195 155.197C511.28 156.122 511.178 157.064 510.898 157.922C510.558 158.959 509.977 159.812 509.244 160.349C508.511 160.886 493.477 163.899 493.477 163.899L448.382 173.13L473.589 204.792C474.071 205.778 474.288 206.962 474.202 208.142C474.117 209.321 473.734 210.424 473.12 211.262C472.506 212.101 471.697 212.623 470.833 212.74C469.968 212.856 465.656 210.621 464.933 209.963L442.528 197.017L445.996 255.517C446.164 256.658 446.043 257.844 445.652 258.878C445.261 259.912 444.624 260.734 443.845 261.209C443.066 261.684 442.192 261.783 441.366 261.49C440.541 261.198 439.813 260.53 439.302 259.598L426.69 197.017V113.377Z" fill="#F50057"/>
</svg>
