<svg width="512" height="512" viewBox="0 0 512 512" fill="none" xmlns="http://www.w3.org/2000/svg">
<path fill-rule="evenodd" clip-rule="evenodd" d="M0.00310522 301.022C0.29203 244.788 20.7432 196.111 61.3568 154.99C102.261 114.112 151.239 93.2694 208.29 92.4626H211.116C252.927 93.2258 289.929 104.141 322.123 125.207V48.4082C322.123 35.2304 326.967 23.9352 336.655 14.5225C346.074 4.84082 357.376 0 370.563 0C384.018 0 395.455 4.84082 404.874 14.5225C414.293 23.9352 419.002 35.2304 419.002 48.4082V137.817C386.81 138.724 366.442 144.257 349.7 154.854C340.686 160.56 333.113 167.49 325.579 175.125C322.328 178.419 319.004 181.928 315.571 185.552C315.037 186.116 314.5 186.683 313.96 187.252C310.119 191.303 306.079 195.539 301.643 199.993C292.459 190.773 284.322 182.954 282.658 182.069C281.337 181.363 278.781 180.837 277.02 180.837C274.115 180.841 272.88 181.72 264.423 189.922L255.083 199.006L245.391 195.745C232.526 191.425 224.155 190.103 209.268 190.189C177.462 190.279 149.353 202.534 127.945 225.372C112.696 241.771 102.474 262.145 98.6007 284.014C96.75 294.331 97.189 314.438 99.483 325.194C108.736 369.285 141.511 402.707 185.299 413.023C196.489 415.582 222.481 415.759 233.056 413.286C268.74 404.998 296.052 383.483 311.559 351.646C319.048 336.303 322.483 320.783 322.483 302.528C322.483 289.213 320.809 278.806 316.754 266.814L313.849 257.997L322.573 249.18C331.56 240.009 333.058 237.364 331.736 232.247C331.492 231.163 324.383 223.402 315.631 214.29C320.324 209.583 324.561 205.14 328.474 201.013C328.986 200.473 329.491 199.939 329.99 199.412L330.106 199.29L330.106 199.29C333.552 195.653 336.718 192.31 339.814 189.173C346.949 181.943 353.277 176.259 360.397 171.753C372.949 163.808 389.235 158.723 419.002 157.825V301.021C419.002 357.305 397.962 410.392 358.049 450.28C327.909 480.4 291.848 499.495 249.867 507.563C238.253 509.972 226.818 511.4 215.561 511.847C214.096 511.948 212.614 512 211.116 512C210.578 512 210.04 511.998 209.502 511.993C208.963 511.998 208.424 512 207.886 512C180.437 512 153.796 506.487 127.961 495.461C89.4786 479.325 58.6657 453.507 35.5224 418.008L35.1269 417.413L34.715 416.797C33.9014 415.559 33.1021 414.316 32.3171 413.069C10.7724 378.937 0 341.991 0 302.231L0.000789045 301.621C0.000503805 301.513 0.00120895 301.404 0.00191427 301.296L0.00310522 301.022ZM440.416 55.0363L428.837 108.719V127.487C431.368 127.487 433.875 128.01 436.213 129.025C438.552 130.04 440.678 131.528 442.469 133.404C444.259 135.279 445.679 137.506 446.648 139.957C447.617 142.408 448.116 145.035 448.116 147.688C448.116 150.341 447.617 152.967 446.648 155.418C445.679 157.869 444.259 160.096 442.469 161.972C440.678 163.848 438.552 165.336 436.213 166.351C433.875 167.366 431.368 167.888 428.837 167.888V185.471L441.224 242.898C441.726 243.753 442.441 244.366 443.252 244.634C444.063 244.903 444.921 244.812 445.686 244.376C446.451 243.94 447.077 243.186 447.461 242.237C447.845 241.288 447.965 240.2 447.8 239.153L444.393 185.471L466.4 197.35C467.11 197.954 471.346 200.005 472.195 199.898C473.044 199.791 473.838 199.312 474.442 198.543C475.045 197.774 475.421 196.762 475.505 195.679C475.589 194.596 475.376 193.51 474.903 192.605L450.143 163.551L494.437 155.08C494.437 155.08 509.203 152.316 509.923 151.823C510.643 151.33 511.215 150.546 511.548 149.595C511.823 148.808 512 147.955 512 147.095C512 146.234 511.823 145.381 511.548 144.594C511.215 143.643 510.643 142.859 509.923 142.367C509.203 141.874 494.437 139.11 494.437 139.11L450.143 130.638L474.903 101.584C475.376 100.679 475.589 99.5928 475.505 98.5102C475.421 97.4277 475.045 96.4157 474.442 95.6465C473.838 94.8773 473.044 94.3983 472.195 94.2911C471.346 94.1838 467.11 96.2354 466.4 96.8388L444.393 108.719L447.8 55.0363C447.965 53.9892 447.845 52.9016 447.461 51.9524C447.077 51.0032 446.451 50.2488 445.686 49.8131C444.921 49.3774 444.063 49.2864 443.252 49.5551C442.441 49.8237 441.726 50.436 441.224 51.2913L440.416 55.0363Z" fill="#E10075"/>
</svg>
