<svg width="513" height="512" viewBox="0 0 513 512" fill="none" xmlns="http://www.w3.org/2000/svg">
<g clip-path="url(#clip0)">
<path d="M62.1647 155.817C21.8266 196.938 1.51411 245.615 1.22714 301.849L1.22596 302.123C1.22526 302.231 1.22456 302.34 1.22484 302.448L1.22406 303.058C1.22406 342.818 11.9234 379.764 33.322 413.896C34.1017 415.143 34.8955 416.386 35.7036 417.624L36.1128 418.24L36.5055 418.834C59.4919 454.334 90.0958 480.151 128.317 496.288C153.977 507.314 180.438 512.827 207.701 512.827C208.235 512.827 208.77 512.825 209.305 512.82C209.84 512.825 210.374 512.827 210.908 512.827C212.396 512.827 213.868 512.775 215.323 512.674C226.504 512.227 237.862 510.798 249.397 508.39C291.093 500.322 326.909 481.227 356.845 451.107C396.487 411.219 417.385 358.132 417.385 301.848V166.608C401.461 164.728 385.223 168.374 369.593 171.042C351.951 173.047 342.996 178.019 333.829 183.809C325.14 189.298 318.364 196.329 307.779 207.597L316.148 215.356C324.247 222.352 325.185 235.754 317.508 243.608L309.575 252.186C330.329 292.315 325.415 342.807 293.167 378.566C279.746 393.459 263.276 403.868 245.593 409.745C234.073 413.922 222.244 416.011 210.106 416.011C202.622 416.011 194.871 415.204 186.852 413.59C161.193 408.212 139.677 395.034 122.304 374.057C105.732 353.08 97.4461 329.414 97.4461 303.058C97.4461 276.285 105.905 252.691 122.823 232.275C124.176 230.604 125.585 228.962 127.049 227.353C131.872 222.004 137.09 217.236 142.618 213.051C161.808 198.197 184.17 190.549 209.705 190.106C224.749 190.339 238.641 193.118 251.38 198.442L259.212 189.974C266.166 181.861 279.519 180.948 287.361 188.669L294.457 195.248C304.85 184.183 313.186 175.33 324.198 168.374C334.779 161.691 346.341 155.345 367.56 152.933C384.559 149.805 400.555 146.222 417.385 148.374V49.2353C417.385 36.0575 412.707 24.7623 403.352 15.3496C393.997 5.66797 382.638 0.827148 369.273 0.827148C356.177 0.827148 344.951 5.66797 335.596 15.3496C325.974 24.7623 321.162 36.0575 321.162 49.2353V126.034C289.187 104.968 252.435 94.0529 210.908 93.2897H208.102C151.437 94.0965 102.792 114.939 62.1647 155.817Z" fill="#F50057"/>
<path d="M428.525 113.597L441.161 50.8933C441.673 49.9594 442.402 49.2909 443.23 48.9975C444.057 48.7042 444.933 48.8036 445.713 49.2793C446.493 49.755 447.132 50.5787 447.523 51.6151C447.915 52.6516 448.037 53.8391 447.869 54.9824L444.394 113.597L466.843 100.626C467.567 99.9668 471.888 97.7268 472.754 97.8439C473.62 97.961 474.43 98.484 475.045 99.3239C475.661 100.164 476.044 101.269 476.13 102.451C476.216 103.633 475.999 104.819 475.516 105.807L450.259 137.531L495.443 146.78C495.443 146.78 510.506 149.798 511.24 150.337C511.974 150.875 512.557 151.73 512.897 152.769C513.178 153.628 513.28 154.573 513.195 155.499C513.28 156.426 513.178 157.37 512.897 158.229C512.557 159.268 511.974 160.123 511.24 160.661C510.506 161.2 495.443 164.218 495.443 164.218L450.259 173.467L475.516 205.191C475.999 206.179 476.216 207.365 476.13 208.547C476.044 209.729 475.661 210.834 475.045 211.674C474.43 212.514 473.62 213.037 472.754 213.154C471.888 213.271 467.567 211.031 466.843 210.372L444.394 197.401L447.869 256.016C448.037 257.159 447.915 258.347 447.523 259.383C447.132 260.419 446.493 261.243 445.713 261.719C444.933 262.194 444.057 262.294 443.23 262.001C442.402 261.707 441.673 261.039 441.161 260.105L428.525 197.401V113.597Z" fill="#F50057"/>
</g>
<defs>
<clipPath id="clip0">
<rect x="0.398132" width="512" height="512" fill="white"/>
</clipPath>
</defs>
</svg>
