<?xml version="1.0" encoding="utf-8"?>
<!-- Generator: Adobe Illustrator 21.1.0, SVG Export Plug-In . SVG Version: 6.00 Build 0)  -->
<svg version="1.2" baseProfile="tiny" id="Layer_1" xmlns="http://www.w3.org/2000/svg" xmlns:xlink="http://www.w3.org/1999/xlink"
	 x="0px" y="0px" viewBox="0 0 1944.8 349.6" xml:space="preserve">
<g>
	<path fill="#FFFFFF" d="M970.3,162.5v139.3h-23.2V162.5H970.3z M900.6,301.8V325h-92.9v-23.2h69.6v-23.2h23.2v-92.9h23.2v-23.2
		h23.2v-23.2h-23.2v-23.2h-46.5V69.7H854V23.2h-23v92.9h-46.4v23.2h-23.2v23.2h-23.2v139.3h23.2V325h23.2v23.2h139.3V325h23.2v-23.2
		H900.6z M831,23.2V0h-46.4v23.2C784.5,23.2,831,23.2,831,23.2z M784.5,23.2h-23.2v46.4h23.2V23.2z M738.1,116.1v23.2h23.2v-23.2
		C761.3,116.1,738.1,116.1,738.1,116.1z M761.3,92.9V69.7h-46.4V23.2h-23.2v46.4h-23.2v23.2h23.2v46.5h23.2v-23.2h23.2V92.9H761.3z"
		/>
	<g>
		<path fill="#FFFFFF" d="M0,349.6V233.4h116.1V117.3h58.1v29h29v203.3H0z M116.1,320.6v-58.1H29v58.1H116.1z"/>
		<path fill="#FFFFFF" d="M232.3,349.6V146.3h29v-29h145.2v29h29v116.1H319.4v29h116.1v58.1H232.3V349.6z M406.5,233.4v-58.1h-87.1
			v58.1H406.5z"/>
		<path fill="#FFFFFF" d="M522.7,349.6V175.4h-58.1v-58.1h58.1v-29h87.1v29h58.1v58.1h-58.1v174.2L522.7,349.6L522.7,349.6z"/>
		<path fill="#FFFFFF" d="M1015.6,348.3V116h58.1v58.1h29V116h87.1v29h29v29h29v174.2h-58.1v-87.1h-29v-29h-58.1v29h-29v87.1
			L1015.6,348.3L1015.6,348.3z"/>
		<path fill="#FFFFFF" d="M1277,348.3V232.1h174.2v-29H1306V145h29v-29h116.1v29h29v203.3H1277z M1393.1,319.2v-58.1H1306v58.1
			H1393.1z"/>
		<path fill="#FFFFFF" d="M1567.3,348.3V174.1h-58.1V116h58.1V87h87.1v29h58.1v58.1h-58.1v174.2H1567.3z"/>
		<path fill="#FFFFFF" d="M1741.6,348.3V145h29v-29h145.2v29h29v116.1h-116.1v29h116.1v58.1L1741.6,348.3L1741.6,348.3z
			 M1915.8,232.1V174h-87.1v58.1H1915.8z"/>
	</g>
</g>
</svg>
