<svg width="512" height="512" viewBox="0 0 512 512" fill="none" xmlns="http://www.w3.org/2000/svg">
<path fill-rule="evenodd" clip-rule="evenodd" d="M0.00334936 301.327C0.292274 245.204 20.7435 196.622 61.357 155.581C102.262 114.783 151.239 93.981 208.29 93.1758H211.116C252.927 93.9375 289.929 104.831 322.123 125.856V49.2074C322.123 36.0554 326.967 24.7822 336.655 15.3879C346.074 5.72516 357.376 0.893799 370.563 0.893799C384.018 0.893799 395.455 5.72516 404.874 15.3879C414.293 24.7822 419.002 36.0554 419.002 49.2074V137.424C386.814 138.329 366.449 143.85 349.708 154.426C340.694 160.12 333.121 167.038 325.586 174.658C322.336 177.945 319.012 181.446 315.581 185.062L315.578 185.064C315.044 185.627 314.507 186.193 313.967 186.761C310.066 190.868 305.96 195.164 301.443 199.686C292.341 190.554 284.311 182.843 282.659 181.964C281.338 181.257 278.781 180.732 277.021 180.732C274.116 180.736 272.88 181.615 264.423 189.816L255.084 198.901L245.391 195.64C232.527 191.32 224.156 189.997 209.268 190.083C177.462 190.174 149.353 202.429 127.946 225.267C112.697 241.665 102.475 262.04 98.6013 283.909C96.7506 294.225 97.1896 314.332 99.4836 325.088C108.737 369.179 141.512 402.601 185.3 412.917C196.49 415.476 222.481 415.652 233.056 413.18C268.74 404.892 296.053 383.376 311.56 351.54C319.049 336.197 322.483 320.677 322.483 302.422C322.483 289.108 320.809 278.701 316.755 266.709L313.85 257.891L322.574 249.074C331.56 239.904 333.058 237.259 331.737 232.141C331.491 231.049 324.276 223.18 315.434 213.979C320.202 209.21 324.501 204.711 328.468 200.536C329.019 199.956 329.563 199.383 330.1 198.817C333.545 195.187 336.712 191.85 339.807 188.72C346.943 181.504 353.27 175.832 360.39 171.334C372.944 163.404 389.233 158.328 419.002 157.432V301.327C419.002 357.5 397.962 410.484 358.049 450.294C327.909 480.356 291.849 499.413 249.868 507.465C238.254 509.869 226.818 511.294 215.561 511.741C214.096 511.842 212.615 511.894 211.116 511.894C210.578 511.894 210.04 511.891 209.502 511.887C208.963 511.891 208.425 511.894 207.887 511.894C180.438 511.894 153.796 506.391 127.961 495.387C89.4788 479.282 58.666 453.515 35.5226 418.085L35.1272 417.491L34.7152 416.877C33.9016 415.641 33.1023 414.401 32.3173 413.156C10.7726 379.091 0.000244141 342.217 0.000244141 302.535L0.00103319 301.926C0.000748007 301.817 0.00145278 301.709 0.00215795 301.601L0.00215841 301.601L0.00334936 301.327ZM440.417 54.8246L428.837 108.402V127.134C431.369 127.134 433.875 127.656 436.214 128.668C438.553 129.682 440.679 131.167 442.469 133.039C444.26 134.911 445.68 137.134 446.649 139.58C447.618 142.026 448.117 144.647 448.117 147.295C448.117 149.943 447.618 152.564 446.649 155.01C445.68 157.457 444.26 159.679 442.469 161.551C440.679 163.423 438.553 164.908 436.214 165.922C433.875 166.935 431.369 167.456 428.837 167.456V185.004L441.224 242.319C441.726 243.173 442.441 243.784 443.252 244.052C444.063 244.32 444.922 244.229 445.687 243.795C446.452 243.36 447.077 242.607 447.462 241.66C447.846 240.712 447.965 239.627 447.8 238.582L444.393 185.004L466.4 196.861C467.111 197.463 471.346 199.511 472.195 199.404C473.044 199.297 473.838 198.818 474.442 198.051C475.045 197.283 475.421 196.273 475.505 195.193C475.589 194.112 475.376 193.028 474.903 192.125L450.144 163.127L494.437 154.673C494.437 154.673 509.204 151.914 509.924 151.422C510.644 150.93 511.215 150.148 511.548 149.199C511.824 148.413 512 147.562 512 146.703C512 145.844 511.824 144.993 511.548 144.207C511.215 143.258 510.644 142.476 509.924 141.984C509.204 141.492 494.437 138.734 494.437 138.734L450.144 130.279L474.903 101.281C475.376 100.378 475.589 99.2941 475.505 98.2136C475.421 97.1332 475.045 96.1232 474.442 95.3555C473.838 94.5878 473.044 94.1097 472.195 94.0027C471.346 93.8957 467.111 95.9432 466.4 96.5454L444.393 108.402L447.8 54.8246C447.965 53.7796 447.846 52.6941 447.462 51.7468C447.077 50.7994 446.452 50.0465 445.687 49.6117C444.922 49.1768 444.063 49.086 443.252 49.3541C442.441 49.6222 441.726 50.2333 441.224 51.0869L440.417 54.8246Z" fill="#F50057"/>
</svg>
