<?xml version="1.0" encoding="utf-8"?>
<!-- Generator: Adobe Illustrator 21.1.0, SVG Export Plug-In . SVG Version: 6.00 Build 0)  -->
<svg version="1.2" baseProfile="tiny" id="Layer_1" xmlns="http://www.w3.org/2000/svg" xmlns:xlink="http://www.w3.org/1999/xlink"
	 x="0px" y="0px" viewBox="0 0 1970.3 390.5" xml:space="preserve">
<g>
	<g>
		<g>
			<g>
				<path fill="#FFFFFF" d="M927.2-594.2l18.2,7.1c1.6,0.6,3.3,0.8,4.9,0.5c3.6-0.6,6.8-3.3,8-7.4c1.7-5.9-1.3-12.4-6.7-14.5
					l-18.2-7.1c-5.4-2.1-11.2,1-12.9,6.9C918.8-602.7,921.8-596.3,927.2-594.2z"/>
				<path fill="#FFFFFF" d="M955.5-620.7c1.7,5.4,6.6,8.6,11.5,7.9c0.5-0.1,1.1-0.2,1.6-0.4c5.4-1.9,8.2-8.2,6.4-14.2l-6.2-20.1
					c-1.9-6-7.7-9.4-13.1-7.5c-5.4,1.9-8.2,8.2-6.4,14.2L955.5-620.7z"/>
				<path fill="#FFFFFF" d="M990.1-612.8c2.1,1.4,4.5,1.8,6.8,1.5c3-0.5,5.7-2.4,7.2-5.4l9.2-18.1c2.8-5.4,1-12.3-4-15.5
					c-5-3.2-11.2-1.4-14,3.9l-9.2,18.1C983.3-622.9,985.1-616,990.1-612.8z"/>
				<path fill="#FFFFFF" d="M1009.6-578.5c-4.1-4.5-10.6-4.6-14.5-0.2c-3.9,4.4-3.8,11.6,0.3,16.1l13.8,15c2.5,2.7,5.8,3.8,8.9,3.3
					c2.1-0.3,4.1-1.4,5.6-3.1c3.9-4.4,3.8-11.6-0.3-16L1009.6-578.5z"/>
				<path fill="#FFFFFF" d="M1029.9-611.7l-18.8,2.8c0,0-0.1,0-0.1,0c-5.5,0.9-9.3,6.6-8.4,12.7c0.9,6.2,6.2,10.6,11.8,9.8l18.8-2.8
					c0,0,0.1,0,0.1,0c5.6-0.9,9.3-6.6,8.4-12.7C1040.8-608.2,1035.5-612.6,1029.9-611.7z"/>
				<path fill="#FFFFFF" d="M980.3-593.1c-4.8-3.5-11.1-2.1-14.2,3l-19.6,33.6l-16.6-9c-8.2-4.4-17.9-2.6-23.9,4.6l-19.8,23.5
					c-6.2-0.1-12.5,0.4-18.9,1.4c-67.4,10.7-112.6,80.2-100.7,154.9c11.9,74.7,76.3,126.8,143.7,116.1
					c67.4-10.7,112.6-80.2,100.7-154.9c-3.9-24.5-13.5-46.5-26.9-64.8l4.3-31c1.4-9.9-3.4-19.9-11.7-24.4l-11.4-6.2l18.2-31.1
					C986.5-582.5,985.1-589.5,980.3-593.1z M875.8-481.8L875.8-481.8C875.8-481.8,875.8-481.8,875.8-481.8
					c-18.8,3-35.2,15.5-45.1,34.4c-10.6,20.2-12.3,45.3-4.8,67.2c2,5.9-0.6,12.4-5.9,14.5c-0.6,0.2-1.3,0.4-1.9,0.5
					c-4.7,0.8-9.6-2.3-11.4-7.5c-9.9-28.7-7.7-60.2,6-86.5c12.9-24.7,34.6-41.1,59.4-45.1c0,0,0,0,0,0c5.6-0.9,10.9,3.4,11.9,9.6
					C885.2-488.5,881.4-482.7,875.8-481.8z"/>
			</g>
		</g>
		<g>
			<path fill="#FFFFFF" d="M180.4-289.4c-32.9,15.2-51.3,22.2-75.4,22.2c-71.6,0-105.8-61.4-105.8-125.4c0-68.4,39.9-140,116.6-140
				c17.1,0,35.5,2.5,56.4,8.9l-5.7-124.2l73.5-7.6l11.4,381.3l-66.5,7.6L180.4-289.4z M171.5-465.5c-12-4.4-23.4-6.3-33.6-6.3
				c-45.6,0-67.1,41.8-67.1,81.1c0,31.7,14.6,60.8,43.1,60.8c15.8,0,35.5-7,59.5-22.8L171.5-465.5z"/>
			<path fill="#FFFFFF" d="M504.1-287.5c-33.6,16.5-64.6,23.4-92.5,23.4C337.5-264.1,283-323,283-412.3
				c0-78.6,45.6-145.7,126.1-145.7c58.9,0,115.3,36.7,115.3,133c0,5.1-0.6,10.1-0.6,15.2l-167.9,31.7c5.7,42.4,32.9,55.1,62.7,55.1
				c22.2,0,46.2-7.6,64-15.2L504.1-287.5z M460.4-450.3c0-39.3-25.3-53.8-49.4-53.8c-27.9,0-55.7,22.8-60.8,64.6
				c-0.6,3.2,0,5.1-0.6,8.2L460.4-450.3z"/>
			<path fill="#FFFFFF" d="M609.2-650.5l70.9,3.8L658.7-520h53.2l-2.5,63.3h-54.5c-3.2,18.4-5.1,36.1-5.1,52.6
				c0,46.2,15.2,83,61.4,83c9.5,0,20.3-1.9,32.3-5.1l2.5,59.5c-16.5,3.2-31.7,5.1-45.6,5.1c-76,0-117.2-46.2-117.2-138.1
				c0-17.1,1.3-36.1,3.8-57h-37.4L556-520h38.6L609.2-650.5z"/>
			<path fill="#FFFFFF" d="M1128.9-540.9l-1.3,23.4c32.3-12.7,60.8-20.9,84.3-20.9c52.6,0,79.8,39.3,79.8,139.4
				c0,34.2-2.5,76-9.5,126.1l-77.9,5.1c10.1-54.5,13.9-97.6,13.9-128c0-67.1-22.2-79.2-43.7-79.2c-17.1,0-35.5,15.2-46.9,34.2
				l-11.4,174.2h-74.1l20.9-274.3H1128.9z"/>
			<path fill="#FFFFFF" d="M1486.8-298.3c-33.6,22.2-62.7,31-87.4,31c-54.5,0-84.9-39.9-84.9-83c0-70.9,78.6-99.5,159-100.7
				c-1.3-22.8-13.3-41.2-43.1-41.2c-16.5,0-38.6,7.6-68.4,28.5l-41.8-45c34.8-31,74.7-45.6,110.9-45.6c58.9,0,109.6,25.3,115.3,99.5
				c3.8,54.5,3.8,114.7,10.1,178.6l-56.4,5.7L1486.8-298.3z M1377.9-354.7c0,17.1,20.3,32.3,46.9,32.3c16.5,0,36.1-5.7,55.1-19.6
				v-58.9C1404.5-397.7,1377.9-374.9,1377.9-354.7z"/>
			<path fill="#FFFFFF" d="M1619.8-650.5l70.9,3.8L1669.3-520h53.2l-2.5,63.3h-54.5c-3.2,18.4-5.1,36.1-5.1,52.6
				c0,46.2,15.2,83,61.4,83c9.5,0,20.3-1.9,32.3-5.1l2.5,59.5c-16.5,3.2-31.7,5.1-45.6,5.1c-76,0-117.2-46.2-117.2-138.1
				c0-17.1,1.3-36.1,3.8-57h-37.4l6.3-63.3h38.6L1619.8-650.5z"/>
			<path fill="#FFFFFF" d="M1980.3-287.5c-33.6,16.5-64.6,23.4-92.5,23.4c-74.1,0-128.6-58.9-128.6-148.2
				c0-78.6,45.6-145.7,126.1-145.7c58.9,0,115.3,36.7,115.3,133c0,5.1-0.6,10.1-0.6,15.2l-167.9,31.7c5.7,42.4,32.9,55.1,62.7,55.1
				c22.2,0,46.2-7.6,64-15.2L1980.3-287.5z M1936.6-450.3c0-39.3-25.3-53.8-49.4-53.8c-27.9,0-55.7,22.8-60.8,64.6
				c-0.6,3.2,0,5.1-0.6,8.2L1936.6-450.3z"/>
		</g>
	</g>
</g>
<g>
	<path fill="#FFFFFF" d="M1005.7,181.6v155.7h-26V181.6H1005.7z M927.9,337.3v26H824.1v-26h77.8v-26h26V207.6h26v-26h25.9v-25.9
		h-25.9v-26h-51.9V77.8H876V26h-26v103.8h-51.9v26h-26v25.9h-25.9v155.7h25.9v26h26v25.9h155.7v-25.9h25.9v-26H927.9z M850.1,26V0
		h-51.9v26C798.2,26,850.1,26,850.1,26z M798.2,26h-26v51.9h26V26z M746.3,129.7v26h25.9v-26H746.3z M772.2,103.8V77.8h-51.9V26
		h-25.9v51.9h-26v25.9h26v51.9h25.9v-26h26v-26H772.2z"/>
	<g>
		<path fill="#FFFFFF" d="M0,390.5V274.3h116.1V158.2h58.1v29h29v203.3H0z M116.1,361.5v-58.1H29v58.1H116.1z"/>
		<path fill="#FFFFFF" d="M232.3,390.5V187.2h29v-29h145.2v29h29v116.1H319.4v29h116.1v58.1H232.3z M406.5,274.3v-58.1h-87.1v58.1
			H406.5z"/>
		<path fill="#FFFFFF" d="M522.7,390.5V216.3h-58.1v-58.1h58.1v-29h87.1v29h58.1v58.1h-58.1v174.2H522.7z"/>
		<path fill="#FFFFFF" d="M1041.2,389.2V156.9h58.1V215h29v-58.1h87.1v29h29v29h29v174.2h-58.1v-87.1h-29v-29h-58.1v29h-29v87.1
			H1041.2z"/>
		<path fill="#FFFFFF" d="M1302.5,389.2V273h174.2v-29h-145.2v-58.1h29v-29h116.1v29h29v203.3H1302.5z M1418.6,360.1v-58.1h-87.1
			v58.1H1418.6z"/>
		<path fill="#FFFFFF" d="M1592.9,389.2V215h-58.1v-58.1h58.1v-29h87.1v29h58.1V215H1680v174.2H1592.9z"/>
		<path fill="#FFFFFF" d="M1767.1,389.2V185.9h29v-29h145.2v29h29v116.1h-116.1v29h116.1v58.1H1767.1z M1941.3,273V215h-87.1V273
			H1941.3z"/>
	</g>
</g>
</svg>
